<?xml version="1.0" standalone="no"?>
<!DOCTYPE svg PUBLIC "-//W3C//DTD SVG 20010904//EN"
 "http://www.w3.org/TR/2001/REC-SVG-20010904/DTD/svg10.dtd">
<svg version="1.0" xmlns="http://www.w3.org/2000/svg"
 width="600.000000pt" height="81.000000pt" viewBox="0 0 600.000000 81.000000"
 preserveAspectRatio="xMidYMid meet">
<g transform="translate(0.000000,81.000000) scale(0.100000,-0.100000)"
fill="#000000" stroke="none">
<path d="M655 656 c-147 -65 -176 -310 -49 -415 114 -93 283 -52 345 84 23 49
25 158 4 208 -21 51 -64 97 -110 118 -48 22 -146 24 -190 5z m65 -18 c0 -4 5
-8 11 -8 5 0 8 4 4 9 -3 6 7 8 22 6 16 -2 37 -4 49 -4 32 -1 118 -76 110 -97
-3 -7 2 -15 10 -18 8 -3 14 -10 14 -16 0 -6 -6 -8 -12 -4 -10 6 -9 3 0 -9 18
-22 18 -157 -1 -157 -4 0 -6 -4 -3 -9 3 -5 -1 -11 -9 -15 -9 -3 -12 -12 -8
-23 3 -10 2 -15 -2 -11 -5 5 -14 -1 -22 -12 -19 -27 -113 -69 -113 -50 0 6
-11 5 -27 -1 -34 -13 -30 -13 -49 5 -8 8 -21 13 -28 10 -14 -5 -29 10 -32 34
-3 17 11 15 26 -3 7 -9 18 -14 25 -12 6 3 22 -1 36 -9 29 -16 42 -18 34 -4 -4
7 3 7 20 0 21 -8 32 -6 54 10 16 11 31 17 34 14 3 -3 8 -1 11 4 9 15 -18 9
-48 -12 -15 -10 -30 -16 -32 -13 -6 5 63 47 77 47 6 0 8 4 5 9 -3 5 1 14 10
22 28 23 37 49 22 66 -11 14 -10 15 12 8 24 -7 24 -6 6 7 -13 10 -15 17 -8 22
7 4 12 15 12 24 0 12 -3 13 -8 5 -5 -8 -8 0 -9 21 -1 18 -7 44 -14 57 -7 13
-12 28 -11 32 1 5 -1 6 -6 3 -5 -3 -19 5 -33 18 -13 12 -33 26 -44 30 -24 10
-115 14 -115 5 0 -4 -9 -9 -21 -12 -14 -4 -18 -10 -13 -19 4 -7 4 -10 0 -7 -8
8 -56 -37 -56 -52 0 -6 -3 -8 -7 -6 -5 3 -9 -20 -10 -51 -3 -52 -15 -83 -28
-70 -7 6 -7 49 -2 83 5 32 43 98 68 120 14 12 20 14 15 5 -4 -8 2 -4 14 10 12
14 18 18 14 10 -6 -12 -4 -12 10 1 18 17 46 21 46 7z m106 -65 c80 -52 85
-203 9 -273 -22 -21 -37 -25 -85 -25 -63 0 -96 20 -126 77 -23 44 -18 139 9
179 44 67 128 85 193 42z m-236 -209 c0 -14 7 -27 15 -30 12 -5 13 -10 4 -20
-6 -8 -16 -14 -21 -14 -6 0 -6 6 1 14 9 11 9 16 0 22 -8 4 -9 3 -5 -4 4 -7 3
-12 -3 -12 -13 0 -25 45 -17 66 8 22 26 7 26 -22z m37 -84 c-1 -11 -5 -20 -10
-20 -5 0 -7 7 -4 14 4 11 1 13 -11 9 -15 -6 -15 -5 -3 10 16 20 30 14 28 -13z"/>
<path d="M808 623 c7 -3 16 -2 19 1 4 3 -2 6 -13 5 -11 0 -14 -3 -6 -6z"/>
<path d="M855 590 c3 -5 8 -10 11 -10 2 0 4 5 4 10 0 6 -5 10 -11 10 -5 0 -7
-4 -4 -10z"/>
<path d="M2150 663 c-65 -21 -100 -68 -100 -131 0 -61 41 -103 128 -131 109
-34 131 -59 96 -109 -21 -30 -96 -30 -158 0 -38 18 -47 19 -61 8 -48 -40 38
-104 140 -105 75 0 113 16 144 60 28 41 33 72 19 118 -12 40 -51 68 -142 101
-72 26 -86 37 -86 72 0 49 63 64 138 35 l52 -21 16 25 c9 13 13 29 9 36 -21
33 -142 60 -195 42z m143 -28 c9 -4 17 -10 18 -14 0 -3 2 -13 4 -22 2 -12 -2
-15 -17 -11 -15 4 -17 7 -6 13 14 10 -23 14 -80 10 -19 -1 -40 3 -48 10 -8 7
-14 8 -12 3 4 -13 -41 -69 -49 -61 -3 4 0 15 8 24 12 17 12 17 -6 1 -15 -14
-16 -20 -6 -32 7 -8 10 -20 6 -26 -3 -5 -1 -10 5 -10 7 0 9 -9 5 -22 -5 -18
-4 -20 4 -8 10 14 15 7 12 -13 -1 -5 3 -6 8 -3 5 3 20 1 33 -4 l23 -11 -24 5
c-29 6 -15 -9 18 -19 17 -5 21 -4 16 5 -5 8 3 7 21 -3 16 -8 35 -12 43 -9 9 3
11 0 6 -8 -6 -10 -4 -12 9 -7 13 5 17 3 13 -7 -4 -11 -1 -13 11 -9 9 3 14 3
10 -1 -3 -4 1 -16 10 -27 16 -18 24 -79 11 -79 -4 0 -12 -14 -19 -31 -7 -17
-25 -36 -39 -41 -33 -14 -149 -19 -130 -6 10 6 5 8 -16 6 -19 -2 -29 2 -28 9
2 7 -3 10 -11 7 -15 -6 -40 21 -32 35 4 6 30 0 66 -15 41 -17 69 -22 92 -18
33 7 78 39 78 57 0 6 8 19 17 29 16 17 16 20 -2 36 -18 16 -18 16 -5 -1 11
-15 11 -20 0 -30 -8 -7 -11 -8 -7 -1 9 16 -38 64 -62 64 -29 0 -52 11 -45 22
4 6 -2 8 -17 3 -19 -5 -21 -4 -9 5 13 9 12 11 -5 9 -34 -2 -46 1 -41 10 3 5 0
8 -7 7 -6 0 -13 4 -15 9 -2 6 -10 14 -18 18 -33 19 -7 137 30 137 8 0 19 6 25
14 12 14 121 16 154 1z"/>
<path d="M2208 633 c6 -2 18 -2 25 0 6 3 1 5 -13 5 -14 0 -19 -2 -12 -5z"/>
<path d="M2130 609 c0 -5 5 -7 10 -4 6 3 10 8 10 11 0 2 -4 4 -10 4 -5 0 -10
-5 -10 -11z"/>
<path d="M2662 663 c-45 -18 -31 -83 17 -83 29 0 41 15 41 50 0 16 -29 42 -42
39 -2 0 -9 -3 -16 -6z m13 -23 c-3 -5 0 -10 8 -10 7 0 14 -6 14 -13 0 -7 -8
-13 -18 -13 -10 0 -15 4 -13 8 3 4 1 8 -5 8 -6 0 -8 7 -5 15 4 8 10 15 16 15
5 0 6 -4 3 -10z"/>
<path d="M3077 654 c-10 -10 -8 -426 2 -442 5 -8 21 -12 37 -10 28 3 29 6 34
63 7 79 23 81 78 10 24 -30 48 -53 53 -50 5 3 6 -1 3 -10 -6 -14 -1 -16 27
-13 49 4 48 29 -3 91 -80 95 -78 81 -18 142 55 56 60 78 19 88 -18 5 -35 -6
-86 -56 -34 -34 -63 -68 -63 -74 0 -18 11 -16 25 4 13 18 39 9 31 -12 -2 -7 6
-23 20 -36 18 -16 21 -26 13 -35 -6 -7 -8 -18 -4 -24 3 -5 4 -10 0 -10 -7 0
-29 52 -26 63 1 5 -4 5 -10 1 -6 -3 -15 0 -20 7 -6 11 -12 9 -29 -9 -12 -12
-24 -21 -28 -18 -4 2 -7 -19 -6 -47 1 -60 -3 -72 -19 -58 -11 8 -13 158 -7
401 1 24 1 24 16 5 11 -15 14 -45 12 -138 -2 -65 -2 -114 0 -108 2 6 8 9 13 5
6 -3 8 48 7 133 l-3 138 -30 3 c-17 2 -34 0 -38 -4z m223 -155 c0 -5 6 -7 13
-3 6 4 -10 -16 -38 -44 -39 -39 -53 -48 -63 -39 -11 9 -11 13 4 24 9 7 21 10
27 6 6 -4 7 -1 2 6 -4 7 2 22 16 37 24 26 39 31 39 13z m-9 -217 c16 -15 31
-38 34 -51 4 -23 4 -23 -23 -5 -40 26 -57 44 -41 44 10 0 10 3 1 12 -12 12
-16 28 -6 28 3 0 18 -12 35 -28z"/>
<path d="M3275 490 c-3 -5 -1 -10 4 -10 6 0 11 5 11 10 0 6 -2 10 -4 10 -3 0
-8 -4 -11 -10z"/>
<path d="M3704 647 c-2 -7 -3 -109 -2 -227 l3 -215 32 -3 c42 -4 46 12 42 173
-2 69 -2 125 1 124 3 0 28 -46 57 -102 42 -84 55 -103 76 -105 22 -3 31 8 84
107 l58 110 -2 -139 c-2 -76 0 -146 3 -155 5 -11 16 -15 38 -13 l31 3 0 225 0
225 -35 0 c-35 0 -36 -1 -105 -132 l-70 -131 -62 116 c-34 64 -67 125 -72 135
-13 20 -69 23 -77 4z m52 -20 c8 3 17 -4 23 -20 5 -14 14 -28 20 -31 6 -4 7
-14 4 -23 -5 -12 -3 -14 7 -8 10 6 12 4 7 -8 -3 -10 -2 -17 3 -17 6 0 10 -9
10 -21 0 -11 5 -17 10 -14 6 4 10 3 9 -2 -4 -15 27 -73 35 -66 4 5 6 2 4 -5
-1 -8 4 -19 14 -25 13 -9 23 -4 52 26 20 21 36 41 36 45 0 4 -7 -2 -15 -12 -8
-11 -15 -15 -15 -10 0 6 13 28 30 51 16 22 27 43 23 47 -4 3 3 14 16 22 15 11
21 23 18 36 -4 15 -3 17 8 8 11 -9 12 -7 8 8 -3 15 2 21 21 24 26 5 35 -5 16
-17 -5 -3 -10 -12 -10 -18 0 -8 3 -7 9 2 6 9 9 -58 10 -170 1 -175 -6 -228
-24 -199 -4 7 -8 73 -8 146 0 74 -4 134 -8 134 -5 0 -5 8 -2 18 4 9 -8 1 -26
-18 -30 -32 -61 -86 -67 -118 -4 -21 -25 -42 -36 -36 -5 3 -9 0 -7 -7 3 -27
-1 -36 -17 -36 -12 0 -15 8 -12 28 3 21 1 26 -7 19 -13 -11 -35 8 -39 32 -1 7
-5 18 -9 25 -4 6 -4 18 -1 27 5 12 2 15 -10 10 -13 -5 -15 -2 -10 12 4 11 3
16 -1 12 -11 -10 -38 29 -30 42 3 6 -1 7 -10 4 -11 -4 -14 -2 -9 9 3 8 1 18
-4 21 -5 3 -8 -7 -6 -23 2 -19 -2 -31 -12 -35 -9 -4 -12 -11 -7 -18 10 -16 11
-218 1 -218 -4 0 -5 -6 -2 -14 3 -7 -1 -16 -8 -18 -10 -4 -13 32 -13 182 0
104 3 186 6 184 3 -2 4 9 3 24 -2 15 -2 22 2 15 3 -7 12 -9 20 -6z"/>
<path d="M4035 540 c-3 -5 -1 -10 4 -10 6 0 11 5 11 10 0 6 -2 10 -4 10 -3 0
-8 -4 -11 -10z"/>
<path d="M3949 383 c-13 -16 -12 -17 4 -4 16 13 21 21 13 21 -2 0 -10 -8 -17
-17z"/>
<path d="M2430 570 c0 -49 -1 -50 -30 -50 -27 0 -30 -3 -30 -30 0 -27 3 -30
30 -30 l30 0 0 -103 c0 -116 10 -141 63 -155 30 -8 91 -1 104 12 3 3 2 17 -1
31 -6 23 -10 26 -37 20 -50 -11 -59 6 -59 106 l0 89 45 0 c43 0 45 1 45 30 0
29 -2 30 -45 30 l-45 0 0 50 0 50 -35 0 -35 0 0 -50z m52 16 c5 4 4 -4 -3 -17
-7 -13 -11 -26 -9 -29 18 -25 40 -41 49 -35 6 3 11 2 11 -3 0 -6 9 -8 20 -5
21 6 28 -11 8 -23 -7 -5 -8 -3 -3 6 6 10 4 12 -9 7 -10 -4 -24 -7 -32 -7 -7 0
-20 -13 -29 -30 -9 -16 -12 -30 -8 -30 10 0 9 -157 0 -166 -9 -9 1 -24 16 -24
8 0 8 3 -2 9 -24 16 5 20 34 5 16 -8 35 -12 42 -9 8 2 11 0 8 -5 -3 -6 -25
-10 -49 -10 -62 0 -77 20 -77 109 0 39 3 76 7 82 4 8 3 9 -4 5 -8 -5 -10 2 -6
22 6 27 3 31 -25 37 -40 8 -40 22 0 30 19 4 29 12 25 20 -2 7 1 18 7 25 9 10
9 11 0 6 -8 -5 -13 -1 -13 9 0 10 5 13 12 9 7 -4 8 -3 4 4 -4 7 -4 18 1 25 5
9 8 7 11 -6 2 -9 8 -14 14 -11z"/>
<path d="M2460 506 c0 -2 7 -7 16 -10 8 -3 12 -2 9 4 -6 10 -25 14 -25 6z"/>
<path d="M3111 594 c0 -11 3 -14 6 -6 3 7 2 16 -1 19 -3 4 -6 -2 -5 -13z"/>
<path d="M1783 553 c0 -9 4 -10 14 -2 7 6 13 12 13 14 0 1 -6 2 -13 2 -8 0
-14 -6 -14 -14z"/>
<path d="M1976 543 c-6 -14 -5 -15 5 -6 7 7 10 15 7 18 -3 3 -9 -2 -12 -12z"/>
<path d="M4225 550 c-3 -5 -1 -10 4 -10 6 0 11 5 11 10 0 6 -2 10 -4 10 -3 0
-8 -4 -11 -10z"/>
<path d="M1316 527 c3 -10 9 -15 12 -12 3 3 0 11 -7 18 -10 9 -11 8 -5 -6z"/>
<path d="M1022 518 c-9 -9 -12 -71 -12 -219 0 -222 3 -234 52 -227 21 3 23 9
28 87 4 73 7 82 19 68 7 -9 30 -22 51 -28 124 -37 222 117 159 249 -26 52 -70
82 -122 82 -39 0 -93 -22 -99 -40 -2 -6 -16 -13 -31 -16 -19 -3 -26 -1 -22 6
4 6 13 9 21 6 19 -7 28 12 14 29 -15 18 -42 19 -58 3z m158 -13 c-7 -9 -15
-13 -19 -10 -3 3 1 10 9 15 21 14 24 12 10 -5z m53 -11 c4 -1 12 -2 18 -3 6 0
8 -8 5 -17 -4 -12 -2 -15 9 -10 46 17 63 -152 19 -193 -12 -12 -15 -12 -9 -2
5 9 4 12 -3 7 -6 -4 -9 -13 -6 -21 6 -14 -37 -32 -65 -26 -7 1 -10 -2 -7 -8 8
-13 -53 7 -74 24 -28 23 -41 27 -38 13 2 -7 -3 -12 -11 -10 -12 3 -12 0 -1
-12 8 -11 9 -16 1 -16 -7 0 -9 -13 -5 -39 7 -47 -12 -95 -28 -67 -6 11 -4 26
6 46 8 17 11 30 7 30 -9 0 -8 81 2 97 4 6 3 14 -2 17 -10 6 -12 156 -2 157 3
0 16 2 28 5 22 4 23 -4 8 -38 -4 -10 -10 -16 -14 -14 -4 3 -7 -20 -6 -50 0
-37 5 -58 15 -64 8 -6 11 -10 7 -10 -5 0 6 -12 23 -27 35 -29 88 -35 114 -14
8 7 16 8 18 4 3 -4 3 -3 2 4 -2 7 10 26 26 42 15 17 23 31 17 31 -8 0 -8 3 1
8 10 7 10 15 2 36 -5 15 -8 31 -5 36 3 5 2 10 -3 12 -4 1 -17 16 -30 32 -12
16 -22 26 -22 22 0 -4 -9 -2 -20 4 -11 6 -18 15 -15 21 4 5 12 6 18 2 7 -4 15
-8 20 -9z m2 -59 c37 -37 35 -106 -4 -146 -38 -38 -74 -38 -112 0 -21 22 -29
39 -29 66 0 39 22 90 42 98 34 14 80 6 103 -18z"/>
<path d="M1061 453 c-1 -17 16 -25 25 -12 4 7 3 9 -4 5 -5 -3 -13 0 -15 6 -4
9 -6 10 -6 1z"/>
<path d="M1450 512 c-90 -47 -106 -211 -28 -277 57 -48 141 -54 207 -14 35 21
37 27 17 55 -14 18 -16 18 -44 2 -57 -34 -120 -20 -147 32 l-15 29 112 3 113
3 -1 40 c-2 114 -113 180 -214 127z m80 -13 c0 -4 -6 -9 -13 -12 -8 -3 -14 0
-14 7 0 7 6 13 14 13 7 0 13 -4 13 -8z m-50 -14 c-7 -9 -15 -13 -17 -11 -7 7
7 26 19 26 6 0 6 -6 -2 -15z m123 -15 c8 -11 17 -17 20 -13 6 6 11 -20 8 -40
-1 -4 4 -17 10 -29 8 -15 8 -18 0 -14 -6 4 -11 2 -11 -3 0 -6 -3 -11 -8 -11
-4 0 -7 19 -7 42 0 24 -6 43 -13 46 -7 2 -10 8 -6 13 3 5 -2 9 -10 9 -9 0 -16
5 -16 10 0 17 18 11 33 -10z m-160 -20 c-3 -11 -9 -18 -13 -15 -18 11 -6 -47
13 -60 18 -13 19 -15 4 -21 -9 -3 -17 -14 -17 -24 0 -10 -7 -23 -15 -30 -12
-10 -15 -10 -15 4 0 9 5 16 10 16 6 0 10 5 10 11 0 5 -4 7 -10 4 -6 -4 -10 10
-10 34 0 26 5 41 13 42 9 0 9 2 0 6 -9 3 -9 11 3 29 20 29 34 31 27 4z m112
14 c23 -9 58 -81 43 -90 -7 -4 -8 -3 -4 4 5 9 -15 12 -74 12 l-81 0 16 30 c23
44 58 60 100 44z m-114 -183 c6 10 9 8 9 -8 0 -13 -4 -23 -10 -23 -5 0 -10 2
-10 4 0 2 -2 10 -3 18 -2 7 -2 9 1 4 2 -4 8 -2 13 5z m69 -58 c0 -2 -7 -3 -16
-3 -8 0 -12 5 -8 11 4 8 -1 9 -17 5 -13 -3 -19 -3 -12 0 7 3 9 12 6 21 -4 10
3 8 20 -8 15 -12 27 -24 27 -26z m114 16 c-2 -4 -12 -8 -22 -8 -9 0 -31 -2
-49 -4 -18 -2 -30 0 -27 5 3 5 13 6 22 4 10 -3 23 -1 31 3 17 11 52 10 45 0z"/>
<path d="M1714 517 c-2 -7 -3 -80 -2 -162 l3 -150 30 0 30 0 5 107 c6 121 19
148 75 148 50 0 57 -17 56 -132 0 -57 3 -109 8 -116 4 -8 21 -12 37 -10 l29 3
3 115 c3 124 -5 158 -46 190 -27 22 -91 27 -122 10 -10 -5 -27 -26 -39 -45
-12 -20 -17 -33 -11 -30 5 3 10 1 10 -4 0 -6 -4 -11 -9 -11 -14 0 -20 -71 -12
-138 6 -49 5 -62 -5 -58 -7 3 -15 0 -17 -7 -2 -7 -4 52 -4 131 0 78 2 142 4
142 2 0 13 -5 24 -10 16 -9 19 -7 19 9 0 29 -55 44 -66 18z m218 -29 c11 -19
10 -30 -3 -22 -7 4 -7 -2 1 -17 18 -34 24 -38 16 -11 -5 13 -3 22 3 22 10 0
13 -35 13 -178 1 -24 -4 -48 -11 -55 -8 -8 -11 -8 -11 1 0 7 6 12 13 13 7 0 8
2 1 5 -7 3 -10 29 -8 70 4 70 -10 118 -43 151 -11 11 -24 18 -30 16 -6 -2 -13
3 -16 11 -5 13 0 15 30 11 20 -2 40 -10 45 -17z m-112 -1 c0 -2 -10 -12 -22
-23 l-23 -19 19 23 c18 21 26 27 26 19z"/>
<path d="M2657 523 c-16 -4 -17 -18 -15 -161 l3 -157 29 -3 c16 -2 32 2 36 8
4 6 7 74 7 151 0 108 -3 144 -14 155 -15 15 -16 15 -46 7z m39 -99 c2 -51 -2
-81 -9 -86 -9 -6 -9 -10 1 -17 19 -12 12 -95 -9 -99 -13 -2 -15 17 -16 135 -1
143 1 157 20 150 7 -2 12 -34 13 -83z"/>
<path d="M2839 508 c-70 -40 -99 -140 -65 -222 28 -66 113 -106 185 -86 57 15
82 39 70 69 -10 24 -15 24 -76 0 -92 -37 -160 91 -90 169 25 27 81 30 115 6
27 -18 52 -5 52 27 0 53 -124 77 -191 37z m134 -9 c38 -10 48 -38 11 -30 -10
2 -40 4 -66 5 -27 1 -44 5 -40 11 3 6 -7 -2 -21 -18 -47 -49 -55 -120 -20
-174 8 -12 12 -27 8 -32 -3 -6 0 -9 7 -6 8 3 22 -1 33 -9 16 -12 26 -12 65 0
55 17 60 17 60 3 0 -6 -7 -9 -14 -6 -10 4 -13 1 -9 -9 4 -11 -4 -14 -33 -15
-79 -2 -99 2 -117 27 -10 13 -24 21 -30 17 -6 -4 -8 -1 -5 8 3 8 0 23 -8 34
-17 23 -19 105 -3 105 6 0 8 -7 4 -17 -5 -14 -4 -15 6 -6 9 9 9 15 0 26 -13
17 -4 50 12 40 7 -4 8 0 4 11 -6 14 -3 17 8 12 9 -3 13 -2 10 3 -15 25 72 37
138 20z"/>
<path d="M2858 233 c7 -3 16 -2 19 1 4 3 -2 6 -13 5 -11 0 -14 -3 -6 -6z"/>
<path d="M3373 523 c-22 -8 -15 -36 47 -179 53 -123 58 -141 47 -164 -9 -19
-21 -26 -49 -28 -73 -6 -56 -72 18 -72 58 0 79 30 154 224 39 99 70 188 70
197 0 22 -26 32 -50 19 -16 -8 -67 -132 -86 -205 -3 -14 -11 -28 -17 -32 -6
-3 -7 -1 -3 6 8 13 -70 222 -87 233 -13 9 -26 9 -44 1z m40 -46 c-4 -18 -3
-19 6 -7 9 13 11 13 11 -3 0 -10 7 -34 17 -55 9 -20 15 -43 14 -51 -1 -7 2
-10 9 -6 9 6 9 2 1 -14 -10 -18 -9 -20 5 -14 12 4 15 3 10 -5 -9 -15 11 -52
28 -52 8 0 20 20 27 45 7 25 16 45 20 45 4 0 12 21 18 47 15 57 39 105 50 99
20 -13 -11 -101 -31 -90 -10 6 -11 4 0 -7 15 -16 16 -30 1 -26 -6 1 -14 -4
-17 -12 -3 -8 0 -11 7 -7 8 5 7 -1 -1 -21 -7 -15 -15 -30 -18 -33 -3 -3 -6 -9
-7 -15 -10 -45 -38 -100 -61 -121 -16 -15 -20 -22 -9 -18 9 3 17 11 17 17 0 6
3 7 6 4 4 -4 1 -13 -6 -22 -7 -8 -9 -15 -5 -15 5 0 0 -9 -10 -20 -10 -11 -21
-17 -26 -15 -4 3 -10 1 -14 -4 -6 -11 -65 6 -65 19 0 13 34 6 48 -10 12 -13
13 -13 8 3 -3 10 -2 16 2 13 10 -6 42 57 42 82 0 15 2 15 10 2 5 -8 10 -10 11
-5 6 39 5 54 -2 49 -4 -2 -6 -11 -2 -19 4 -11 1 -13 -11 -9 -9 3 -17 11 -18
18 0 6 -2 16 -3 21 -2 6 -3 16 -4 23 0 7 -6 10 -13 6 -7 -4 -8 -3 -4 4 4 6 -1
26 -11 44 -9 18 -16 38 -15 45 1 6 -2 14 -8 18 -5 3 -10 15 -10 25 0 10 -5 20
-11 22 -11 4 -19 38 -12 50 9 16 31 -5 26 -25z"/>
<path d="M4270 523 c-39 -14 -80 -68 -91 -120 -34 -152 103 -258 242 -187 34
17 41 37 24 61 -13 17 -15 17 -43 1 -44 -26 -98 -23 -127 7 -48 47 -36 55 79
55 94 0 105 2 111 19 14 44 -22 123 -68 151 -31 19 -93 25 -127 13z m122 -45
c9 -10 21 -19 25 -19 4 1 8 -5 8 -12 1 -6 7 -22 13 -35 11 -19 10 -25 -3 -38
-9 -10 -22 -13 -33 -9 -15 6 -15 8 -2 14 22 9 22 71 0 63 -8 -3 -12 -2 -8 3
11 11 -11 47 -24 39 -5 -4 -14 -1 -18 6 -6 10 -15 10 -40 1 -48 -16 -66 -15
-50 4 9 10 16 12 20 5 4 -7 12 -5 25 4 22 16 59 5 87 -26z m-153 -43 l-20 -33
33 -26 c18 -15 26 -24 18 -22 -24 8 -50 -17 -43 -42 3 -12 9 -20 13 -17 4 3 7
-3 6 -12 -1 -12 15 -23 49 -36 46 -17 52 -17 82 -3 25 12 33 12 33 3 0 -8 4
-7 10 3 5 8 10 10 10 4 0 -21 -25 -32 -67 -30 -24 1 -43 -2 -43 -7 0 -16 -45
5 -67 31 -13 15 -23 23 -23 18 0 -6 -6 -1 -14 9 -8 11 -12 25 -9 32 3 7 1 13
-4 13 -14 0 -10 83 5 88 6 2 9 8 6 14 -9 15 16 57 31 51 10 -3 9 -12 -6 -38z
m136 27 c-2 -2 3 -19 11 -38 l14 -34 -75 0 c-84 0 -95 11 -50 56 19 19 33 24
64 22 22 -2 38 -4 36 -6z m9 -100 c3 -5 -8 -6 -25 -4 -16 2 -29 6 -29 8 0 8
49 4 54 -4z"/>
<path d="M4225 449 c-4 -6 -5 -12 -2 -15 2 -3 7 2 10 11 7 17 1 20 -8 4z"/>
<path d="M4280 236 c0 -2 7 -7 16 -10 8 -3 12 -2 9 4 -6 10 -25 14 -25 6z"/>
<path d="M4388 233 c7 -3 16 -2 19 1 4 3 -2 6 -13 5 -11 0 -14 -3 -6 -6z"/>
<path d="M4511 517 c-8 -10 -11 -59 -9 -163 l3 -149 29 -3 c16 -2 32 2 37 10
5 7 9 58 9 114 0 111 11 134 61 134 43 0 49 -17 49 -126 0 -122 4 -134 40
-134 36 0 40 12 40 130 0 76 4 102 16 114 18 19 70 21 81 4 4 -7 10 -65 13
-128 5 -111 6 -115 28 -118 46 -7 52 10 48 138 -5 123 -11 149 -48 174 -51 36
-147 9 -139 -38 1 -5 -14 5 -34 23 -45 39 -91 42 -134 6 l-30 -26 -3 23 c-4
27 -39 36 -57 15z m224 -38 c19 -13 35 -28 35 -32 0 -5 -4 -5 -10 -2 -10 6
-11 -13 -12 -163 -1 -34 -5 -65 -11 -69 -6 -3 -7 -1 -4 4 4 6 0 14 -8 17 -13
5 -15 22 -12 93 2 51 8 87 14 86 5 -1 10 5 10 12 0 10 -4 12 -12 5 -8 -7 -16
-2 -25 14 -7 13 -22 29 -34 35 -12 7 -14 10 -3 7 9 -3 17 -1 17 4 0 28 -76 -7
-107 -48 -19 -26 -21 -41 -19 -115 2 -64 -1 -87 -11 -91 -14 -6 -14 -10 -15
154 -1 90 1 105 15 108 15 3 22 -8 18 -30 -2 -16 19 -7 31 11 6 11 18 17 26
13 10 -3 13 -1 9 6 -13 20 71 6 108 -19z m131 15 c-3 -8 0 -16 6 -20 6 -4 8
-3 5 2 -3 6 -2 16 4 24 7 12 9 12 9 -3 0 -10 4 -16 9 -12 14 8 32 -30 24 -51
-4 -10 -2 -15 3 -11 9 5 9 -45 0 -158 -4 -52 -5 -53 -16 -35 -13 20 -13 107 1
132 9 16 8 19 -1 13 -10 -6 -12 -1 -8 18 4 20 -3 36 -28 64 -20 23 -33 32 -34
23 0 -13 -2 -13 -10 0 -7 12 -12 11 -31 -5 -21 -19 -18 -4 5 21 15 16 68 14
62 -2z"/>
<path d="M4731 314 c0 -11 3 -14 6 -6 3 7 2 16 -1 19 -3 4 -6 -2 -5 -13z"/>
<path d="M5075 512 c-45 -29 -63 -52 -76 -103 -40 -151 103 -268 234 -191 94
55 96 217 5 285 -39 29 -124 34 -163 9z m115 -16 c0 -4 7 -5 15 -2 9 3 18 -1
21 -9 4 -8 10 -12 15 -9 5 3 6 -3 2 -12 -4 -11 -3 -15 5 -10 6 3 13 2 17 -4
16 -26 27 -130 14 -130 -6 0 -7 6 -3 13 6 10 4 10 -7 0 -7 -7 -17 -13 -22 -13
-6 0 -5 5 0 13 15 19 2 118 -16 115 -18 -2 -24 3 -13 11 11 7 10 9 -3 14 -10
4 -14 3 -9 -4 3 -6 -5 -3 -19 6 -18 11 -33 14 -49 9 -26 -9 -33 -11 -48 -13
-5 0 -10 -8 -10 -16 0 -7 -7 -18 -16 -23 -24 -13 -23 -111 2 -145 10 -15 27
-29 37 -32 9 -4 15 -9 13 -13 -2 -4 20 -5 49 -4 44 3 53 7 48 20 -4 9 -2 13 4
9 6 -4 14 4 17 18 4 14 11 23 16 20 6 -3 10 -1 10 5 0 6 4 9 10 5 10 -6 -8
-56 -19 -52 -3 1 -7 -2 -8 -7 -2 -15 -27 -26 -60 -26 -17 0 -43 -4 -57 -10
-21 -8 -26 -6 -26 6 0 9 -7 14 -17 12 -12 -2 -17 3 -15 15 2 9 -1 17 -5 16
-15 -4 -43 13 -37 22 3 6 0 16 -6 24 -10 12 -10 15 0 15 10 0 10 3 1 14 -15
18 -4 69 13 59 6 -4 6 -1 -2 9 -10 13 -10 17 5 23 10 5 22 7 26 6 5 -1 6 3 2
8 -3 6 -13 7 -23 4 -13 -4 -13 -2 3 10 11 8 23 13 27 11 4 -3 12 3 19 13 8 13
23 18 55 18 24 0 44 -4 44 -9z m15 -61 c42 -41 30 -138 -20 -165 -30 -16 -81
-4 -100 23 -22 32 -19 109 6 141 28 35 80 36 114 1z"/>
<path d="M5250 435 c0 -8 4 -15 10 -15 5 0 7 7 4 15 -4 8 -8 15 -10 15 -2 0
-4 -7 -4 -15z"/>
<path d="M5137 319 c7 -7 15 -10 18 -7 3 3 -2 9 -12 12 -14 6 -15 5 -6 -5z"/>
<path d="M5368 501 c-26 -23 -33 -36 -33 -69 0 -51 15 -67 86 -93 32 -12 64
-28 70 -35 31 -37 -57 -60 -111 -29 -33 19 -37 19 -50 -6 -16 -29 9 -54 70
-69 67 -16 124 0 151 43 39 63 6 122 -85 150 -59 19 -74 38 -50 62 19 19 35
19 79 1 31 -13 37 -13 50 0 11 12 12 20 4 35 -13 26 -49 39 -104 39 -35 0 -52
-6 -77 -29z m142 -6 c12 -14 11 -16 -11 -11 -62 15 -79 15 -79 0 0 -8 -7 -14
-15 -14 -8 0 -15 -9 -15 -21 0 -11 -4 -18 -9 -15 -11 7 -8 -21 4 -31 4 -4 5
-2 0 6 -6 11 47 -21 65 -39 10 -10 73 -29 81 -25 4 3 5 -5 2 -17 -4 -19 -3
-20 6 -8 10 13 11 13 11 0 0 -33 -13 -61 -26 -56 -8 3 -11 0 -8 -9 5 -11 -22
-35 -40 -35 -16 0 -3 18 16 23 12 4 19 9 15 13 -3 4 -2 15 3 25 7 12 7 20 0
24 -6 4 -8 11 -5 16 4 5 -1 9 -10 9 -10 0 -13 5 -9 12 5 8 2 9 -9 5 -19 -7
-70 16 -60 27 4 4 0 4 -9 1 -25 -10 -59 32 -51 64 8 34 23 52 36 44 6 -4 8 0
5 8 -9 22 94 26 112 4z m-62 -268 c6 3 12 0 12 -6 0 -18 -86 5 -94 26 -3 8
-11 11 -17 7 -7 -4 -9 -3 -5 4 4 7 21 3 49 -12 23 -13 48 -21 55 -19z"/>
<path d="M5586 347 c3 -10 9 -15 12 -12 3 3 0 11 -7 18 -10 9 -11 8 -5 -6z"/>
<path d="M1741 314 c0 -11 3 -14 6 -6 3 7 2 16 -1 19 -3 4 -6 -2 -5 -13z"/>
<path d="M3100 240 c0 -5 5 -10 11 -10 5 0 7 5 4 10 -3 6 -8 10 -11 10 -2 0
-4 -4 -4 -10z"/>
<path d="M1366 211 c-3 -5 2 -15 12 -22 15 -13 16 -12 4 3 -10 13 -10 17 0 21
9 4 9 6 1 6 -6 1 -14 -3 -17 -8z"/>
<path d="M5315 191 c-3 -5 -2 -12 3 -15 5 -3 9 1 9 9 0 17 -3 19 -12 6z"/>
</g>
</svg>
