<?xml version="1.0" standalone="no"?>
<!DOCTYPE svg PUBLIC "-//W3C//DTD SVG 20010904//EN"
 "http://www.w3.org/TR/2001/REC-SVG-20010904/DTD/svg10.dtd">
<svg version="1.0" xmlns="http://www.w3.org/2000/svg"
 width="600.000000pt" height="586.000000pt" viewBox="0 0 600.000000 586.000000"
 preserveAspectRatio="xMidYMid meet">
<g transform="translate(0.000000,586.000000) scale(0.100000,-0.100000)"
fill="#000000" stroke="none">
<path d="M1400 5530 c-383 -83 -702 -377 -820 -756 -50 -162 -50 -153 -50
-1884 0 -1117 3 -1643 11 -1705 58 -469 400 -842 874 -953 63 -14 233 -16
1645 -19 1667 -4 1697 -4 1855 42 350 102 634 379 744 726 53 169 52 97 48
1939 -3 1602 -4 1710 -21 1780 -101 423 -444 756 -856 834 -72 14 -278 16
-1714 15 -1544 0 -1636 -1 -1716 -19z m3397 -10 c46 -7 81 -16 78 -20 -3 -5 0
-12 6 -16 8 -4 9 -3 5 4 -10 16 2 15 68 -8 84 -29 176 -71 176 -82 0 -5 4 -7
8 -4 7 4 51 -22 119 -73 18 -13 29 -29 26 -34 -4 -6 -1 -7 6 -2 14 8 63 -33
55 -47 -3 -5 -2 -7 3 -6 13 4 83 -64 77 -74 -3 -5 -1 -7 4 -6 5 2 20 -10 34
-27 37 -45 82 -118 66 -110 -7 4 -2 -2 11 -13 13 -10 21 -24 17 -30 -3 -5 1
-12 9 -16 8 -3 15 -10 15 -16 0 -6 -4 -8 -10 -5 -6 3 -7 -1 -4 -9 3 -9 10 -14
14 -11 17 10 79 -176 100 -299 11 -65 15 -3341 4 -3433 -4 -29 -9 -51 -13 -49
-3 2 -7 -17 -8 -42 -2 -44 -17 -67 -37 -55 -5 3 -6 1 -2 -6 4 -6 12 -8 18 -5
17 11 2 -39 -49 -159 -31 -72 -51 -106 -59 -103 -8 3 -11 0 -8 -9 7 -18 -44
-93 -69 -101 -9 -3 -15 -9 -12 -14 3 -5 -5 -10 -17 -12 -12 -2 -23 -10 -25
-18 -4 -13 -3 -13 6 0 5 8 12 12 15 9 3 -3 -2 -15 -10 -28 -12 -17 -19 -19
-29 -11 -10 8 -15 8 -21 -1 -4 -8 -3 -9 4 -5 7 4 12 1 12 -7 0 -18 -104 -117
-122 -117 -7 1 -2 7 12 15 28 16 19 21 -10 5 -11 -6 -17 -16 -15 -23 3 -6 -10
-21 -27 -31 -93 -55 -205 -108 -275 -131 -171 -57 -149 -56 -1874 -52 -1221 3
-1597 6 -1639 16 -133 30 -339 117 -323 136 5 4 2 5 -4 1 -7 -4 -25 2 -40 12
-16 11 -41 27 -57 37 -23 14 -26 19 -15 27 10 7 8 8 -7 4 -15 -5 -35 7 -77 47
-55 51 -56 53 -39 72 16 18 16 18 -1 5 -17 -12 -22 -10 -53 24 -19 21 -31 42
-28 48 4 6 3 9 -2 6 -5 -3 -22 11 -39 30 -16 20 -25 33 -20 30 6 -4 17 -2 25
4 12 8 12 9 -2 4 -21 -6 -61 32 -53 52 2 7 1 11 -4 8 -11 -7 -35 49 -27 63 4
5 0 13 -7 18 -19 11 -60 120 -61 159 -1 18 -3 30 -6 27 -2 -2 -11 17 -19 44
-13 41 -16 279 -19 1703 -2 1143 0 1684 8 1750 11 100 43 228 80 320 22 56 48
95 36 53 -4 -12 -3 -24 2 -27 5 -3 8 11 6 31 -3 38 24 91 68 134 13 12 16 18
8 13 -8 -4 -2 7 14 26 16 19 34 34 40 32 6 -2 8 0 4 4 -11 10 12 35 25 27 5
-3 7 -2 4 4 -8 13 39 57 52 49 6 -4 9 -1 5 7 -3 9 12 28 39 51 44 36 64 46 51
24 -4 -7 -3 -8 4 -4 6 4 8 14 5 24 -6 16 -5 16 13 0 19 -17 20 -16 21 5 2 17
0 19 -7 7 -7 -11 -10 -11 -10 -2 0 7 8 16 18 19 9 4 32 17 51 30 19 13 41 23
51 23 9 0 26 9 38 20 12 12 22 18 22 15 0 -3 13 1 28 9 16 8 71 27 123 42 80
23 119 28 264 33 329 11 3094 3 3182 -9z"/>
<path d="M1355 5481 c-3 -5 0 -13 6 -17 7 -4 9 -3 5 4 -3 5 0 13 6 15 9 4 10
6 1 6 -6 1 -14 -3 -18 -8z"/>
<path d="M1170 5416 c0 -2 7 -7 16 -10 8 -3 12 -2 9 4 -6 10 -25 14 -25 6z"/>
<path d="M4458 5273 c7 -3 16 -2 19 1 4 3 -2 6 -13 5 -11 0 -14 -3 -6 -6z"/>
<path d="M4499 5266 c-3 -3 -65 -8 -139 -11 -74 -3 -218 -12 -320 -20 -364
-28 -524 -37 -563 -32 -29 4 -37 3 -26 -4 9 -7 -10 -9 -63 -7 -42 2 -71 0 -65
-4 7 -5 0 -8 -16 -8 -16 0 -207 -11 -425 -24 -218 -13 -404 -24 -412 -24 -8
-1 -62 -5 -119 -11 -126 -13 -185 -14 -156 -1 11 5 14 9 7 9 -7 1 -25 -5 -40
-13 -18 -9 -73 -15 -164 -17 -76 -2 -138 -7 -138 -10 0 -3 -24 -7 -52 -8 -143
-5 -441 -32 -459 -41 -11 -7 -23 -9 -26 -6 -4 3 -25 -10 -48 -29 -23 -19 -45
-32 -49 -30 -3 3 -4 2 -1 -2 3 -3 -1 -13 -9 -22 -37 -43 -49 -112 -48 -284 0
-124 -3 -166 -11 -161 -7 3 -4 -1 5 -9 10 -8 18 -28 18 -44 l0 -30 -142 -32
c-79 -18 -163 -41 -187 -52 -24 -10 -48 -16 -55 -12 -6 3 -8 3 -4 -2 4 -4 -10
-28 -32 -52 -69 -79 -81 -164 -50 -358 10 -63 27 -198 35 -279 3 -27 9 -76 15
-110 5 -33 12 -97 15 -141 3 -44 10 -91 15 -105 7 -22 14 -71 26 -185 2 -16 8
-59 13 -95 14 -93 33 -231 36 -260 2 -14 8 -59 14 -100 7 -41 16 -109 21 -150
5 -41 14 -105 20 -141 5 -36 11 -93 14 -128 3 -34 12 -110 20 -169 9 -59 23
-156 31 -217 8 -60 17 -121 19 -135 6 -38 19 -141 22 -175 1 -16 7 -55 13 -85
5 -30 12 -75 15 -100 3 -25 12 -94 21 -155 8 -60 13 -116 10 -123 -3 -7 0 -10
5 -7 6 3 10 -4 10 -15 0 -24 43 -115 67 -142 8 -9 12 -22 7 -29 -4 -8 -3 -10
4 -5 14 8 55 -17 45 -27 -3 -4 -2 -7 3 -8 5 0 18 -2 29 -4 11 -3 45 -9 75 -15
58 -10 142 -2 378 41 123 22 88 24 367 -27 50 -9 117 -20 150 -25 33 -5 71
-11 85 -13 14 -3 61 -10 105 -16 44 -6 127 -19 185 -30 58 -10 139 -24 180
-30 120 -17 182 -32 168 -42 -9 -5 -10 -8 -1 -8 6 0 14 4 17 9 5 8 66 -1 336
-49 63 -12 129 -23 145 -25 45 -7 81 -12 180 -30 50 -9 144 -24 210 -35 66
-10 156 -25 200 -33 183 -35 242 -39 301 -22 65 19 137 80 160 134 8 19 31
125 50 236 19 110 39 204 45 210 5 5 9 14 9 20 0 5 -5 3 -11 -5 -7 -11 -8 1
-3 40 3 30 8 58 10 62 7 11 44 -4 37 -16 -3 -6 0 -6 8 1 7 7 33 13 58 13 26 0
41 -4 34 -8 -6 -4 21 -8 60 -8 40 -1 113 -3 162 -4 97 -3 129 5 185 48 19 15
38 26 42 25 4 -2 5 4 2 12 -4 8 -2 15 3 15 12 0 38 57 50 110 6 25 11 90 12
145 1 55 4 109 6 120 2 11 7 65 10 120 21 396 68 1029 95 1290 18 174 41 417
47 498 3 42 9 77 13 77 3 0 5 12 3 28 -3 15 3 88 11 162 9 74 21 208 28 297 6
89 14 160 17 158 3 -2 6 49 6 113 -1 110 -2 120 -28 159 -15 24 -27 47 -27 53
0 6 -5 8 -12 4 -8 -5 -9 -2 -5 10 4 10 3 15 -3 11 -17 -10 -34 6 -19 17 10 6
7 7 -8 3 -13 -4 -23 -2 -23 4 0 6 -7 7 -17 4 -9 -4 -14 -2 -10 3 3 6 -39 18
-103 29 -61 10 -106 21 -101 24 5 4 -14 7 -43 8 -28 2 -82 11 -121 20 l-70 18
-9 95 c-4 52 -9 119 -10 147 0 29 -5 53 -10 53 -5 0 -6 13 -3 28 4 21 0 33
-14 45 -10 9 -19 23 -19 32 0 18 -89 105 -108 105 -7 0 -10 4 -7 10 4 6 -1 7
-11 3 -10 -3 -15 -2 -12 3 6 9 -183 19 -193 10z m177 -31 c75 -22 151 -108
168 -190 6 -32 10 -63 27 -225 6 -58 11 -105 12 -106 1 0 92 -18 202 -39 110
-21 218 -46 240 -55 50 -22 93 -64 116 -115 30 -66 29 -92 -46 -885 -19 -206
-44 -471 -55 -589 -27 -289 -64 -775 -95 -1251 -29 -442 -37 -485 -103 -553
-62 -64 -107 -71 -319 -53 -98 9 -192 18 -209 20 l-31 4 -12 -71 c-7 -40 -26
-155 -42 -257 -33 -214 -48 -258 -101 -316 -75 -81 -143 -89 -380 -43 -57 11
-170 30 -253 44 -82 13 -190 31 -240 40 -101 18 -173 31 -640 110 -181 30
-341 57 -355 60 -14 2 -86 14 -160 25 -381 58 -561 91 -555 100 2 4 -28 1 -68
-7 -40 -8 -117 -20 -172 -28 -55 -8 -131 -19 -168 -25 -52 -8 -82 -7 -126 3
-56 13 -131 59 -131 80 0 5 10 2 23 -9 l22 -19 -19 22 c-10 13 -22 20 -26 18
-12 -7 -45 54 -58 107 -10 40 -68 460 -143 1038 -11 85 -33 250 -49 365 -115
826 -212 1583 -212 1661 0 95 40 167 117 213 26 16 318 94 353 94 15 0 15 34
1 240 -12 186 -3 236 57 305 48 57 84 73 179 83 94 10 1816 132 2230 159 83 5
188 12 235 16 707 50 716 50 786 29z"/>
<path d="M4578 5214 c-3 -2 -244 -18 -538 -35 -102 -5 -219 -14 -260 -19 -72
-8 -71 -8 30 -5 112 4 217 10 450 25 368 24 373 24 423 2 32 -14 44 -16 41 -7
-3 7 -17 16 -32 20 -44 10 -112 22 -114 19z"/>
<path d="M4745 5159 c-6 -9 4 -25 43 -67 6 -7 12 -10 12 -5 0 4 -11 21 -26 36
-14 15 -22 32 -19 37 3 6 4 10 1 10 -3 0 -8 -5 -11 -11z"/>
<path d="M3510 5145 c-96 -7 -222 -15 -280 -19 -58 -4 -123 -9 -145 -11 -50
-5 -205 -16 -264 -19 -29 -1 -46 -7 -49 -17 -3 -12 -2 -12 6 0 5 7 14 11 19 8
5 -3 52 -2 104 3 52 5 157 12 234 15 77 4 143 9 147 11 4 3 94 9 200 15 106 6
197 14 203 20 5 5 7 8 5 8 -3 -1 -84 -7 -180 -14z"/>
<path d="M2660 5079 c-19 -11 46 -11 75 0 15 6 10 8 -20 9 -23 0 -47 -3 -55
-9z"/>
<path d="M2405 5068 c-33 -4 -104 -10 -157 -14 -54 -3 -98 -10 -98 -16 0 -5 4
-7 8 -4 4 2 55 7 112 11 58 3 116 8 130 11 14 2 54 6 89 9 35 3 67 7 69 10 7
6 -73 3 -153 -7z"/>
<path d="M2570 5070 c0 -5 14 -7 33 -3 45 8 47 13 4 13 -20 0 -37 -4 -37 -10z"/>
<path d="M1985 5038 c-55 -5 -122 -12 -150 -17 l-50 -9 55 4 c30 2 100 6 155
9 55 3 101 8 103 10 9 9 -22 10 -113 3z"/>
<path d="M1600 5010 l-65 -7 67 -1 c37 -1 70 3 73 8 3 6 3 9 -2 8 -4 -1 -37
-4 -73 -8z"/>
<path d="M1713 5013 c15 -2 37 -2 50 0 12 2 0 4 -28 4 -27 0 -38 -2 -22 -4z"/>
<path d="M1500 5000 l-25 -8 28 -1 c15 -1 27 4 27 9 0 6 -1 10 -2 9 -2 -1 -14
-5 -28 -9z"/>
<path d="M1374 4989 c-22 -5 -51 -19 -62 -30 -12 -11 -22 -17 -22 -13 0 4 -11
-6 -24 -21 -14 -16 -22 -33 -19 -39 4 -5 10 0 14 11 4 12 21 29 38 39 17 10
31 22 31 25 0 4 25 13 55 19 30 6 55 13 55 16 0 5 -17 4 -66 -7z"/>
<path d="M1718 4993 c7 -3 16 -2 19 1 4 3 -2 6 -13 5 -11 0 -14 -3 -6 -6z"/>
<path d="M4885 4665 c4 -35 36 -350 50 -500 3 -27 14 -140 25 -250 35 -345 39
-395 56 -610 11 -146 15 -274 11 -420 -4 -188 -8 -220 -31 -303 -68 -237 -210
-349 -470 -371 -132 -11 -136 -15 -195 -176 -68 -186 -101 -248 -212 -396
-147 -196 -326 -310 -591 -378 -188 -48 -426 -73 -1143 -120 -695 -46 -704
-46 -762 -27 -41 13 -170 106 -149 106 4 0 -1 14 -9 31 -16 31 -19 55 -65 584
-11 127 -26 309 -35 405 -23 262 -61 786 -147 1983 -6 92 -15 167 -20 167 -14
0 -14 -13 1 -190 15 -180 18 -218 36 -471 8 -118 17 -242 20 -275 3 -32 9
-120 15 -194 29 -411 80 -1037 115 -1445 20 -222 19 -206 10 -229 -6 -13 -5
-17 2 -13 8 5 13 -28 17 -101 3 -59 11 -134 17 -167 6 -33 12 -67 12 -75 0 -8
19 -38 43 -66 24 -28 40 -54 36 -58 -3 -4 2 -4 12 0 15 6 17 4 11 -7 -4 -8 -5
-11 0 -7 4 4 20 1 34 -7 55 -30 102 -33 336 -20 88 4 199 9 246 9 48 1 85 4
83 8 -4 7 67 10 248 12 42 1 74 5 71 9 -2 4 19 7 49 6 29 -1 88 4 132 11 62 9
80 9 86 0 4 -7 12 -10 18 -6 19 11 298 40 389 40 23 0 37 4 30 8 -12 8 51 13
111 9 17 -2 32 2 32 8 0 6 12 11 26 11 32 0 253 49 275 61 26 14 88 17 94 5 3
-6 3 -1 1 12 -3 15 1 22 12 22 10 0 30 7 46 15 16 9 36 13 43 10 9 -3 11 0 7
6 -4 8 1 9 16 4 14 -4 20 -3 17 2 -4 6 6 16 21 23 15 6 43 19 62 28 19 9 69
36 110 61 41 24 80 44 87 44 6 0 10 4 7 9 -3 4 5 12 18 17 13 5 30 16 37 24 7
9 21 14 32 12 11 -2 17 0 14 6 -4 5 -11 6 -17 3 -7 -4 -8 -2 -4 5 6 9 14 8 33
-4 19 -13 28 -14 37 -5 8 8 7 10 -5 5 -20 -8 -46 20 -28 31 8 4 9 3 5 -4 -4
-8 -2 -10 8 -6 9 3 12 12 8 22 -5 15 -4 16 14 2 17 -14 18 -14 6 2 -14 17 -1
35 17 23 9 -5 24 10 27 28 1 4 2 10 3 13 0 4 8 1 16 -6 13 -11 14 -10 9 5 -5
13 -4 16 4 11 7 -4 12 -1 12 8 0 9 5 16 11 16 5 0 7 5 3 12 -5 8 -2 9 9 5 9
-3 16 -3 14 1 -4 13 50 71 58 64 5 -4 5 -2 1 5 -10 18 10 25 24 8 14 -17 30
-20 30 -4 0 5 -4 8 -9 5 -5 -3 -14 1 -20 8 -8 10 -9 16 -1 21 5 3 10 1 10 -4
0 -6 4 -11 10 -11 5 0 6 7 3 17 -5 12 -3 14 7 8 8 -5 11 -4 7 2 -4 6 5 20 18
33 13 13 22 26 20 30 -2 4 2 16 10 26 12 15 14 15 9 3 -3 -10 0 -20 7 -25 8
-4 10 -3 5 5 -4 6 -2 18 4 26 7 8 9 15 4 15 -5 0 -4 4 1 8 6 4 19 24 30 44 10
20 21 35 25 33 3 -2 14 17 24 41 10 24 22 42 26 39 4 -3 11 6 14 20 4 14 11
25 17 25 6 0 7 4 4 10 -3 6 -1 10 6 10 7 0 9 3 6 6 -4 4 2 19 13 34 11 16 20
33 20 40 0 7 7 10 15 6 13 -5 14 -2 4 15 -8 15 -8 19 0 15 7 -5 11 3 11 19 0
17 4 24 12 19 7 -4 8 -3 4 4 -4 7 -2 12 4 12 7 0 10 6 7 14 -3 7 1 26 8 40 8
15 17 42 21 61 3 19 9 33 13 31 3 -2 7 6 7 17 3 44 8 67 15 67 4 0 7 10 7 23
0 12 4 45 9 72 18 109 7 646 -17 830 -5 39 -9 77 -9 85 -4 142 -7 186 -13 177
-4 -7 -8 24 -9 68 -2 86 -2 86 -18 190 -6 39 -12 109 -14 156 -1 48 -6 85 -10
82 -5 -3 -8 14 -7 38 2 24 0 51 -3 59 -6 17 -19 131 -22 200 -1 25 -6 58 -10
74 -8 28 -7 29 21 21 16 -4 74 -15 129 -26 223 -41 263 -53 304 -88 22 -19 42
-47 46 -65 6 -23 9 -26 12 -12 7 26 -24 79 -61 103 -48 32 -114 48 -420 99
-16 3 -35 13 -42 22 -12 15 -13 11 -9 -23z m22 -2346 c-65 -137 -158 -288
-238 -386 -63 -77 -76 -101 -31 -62 l27 24 -24 -27 c-13 -15 -27 -26 -31 -25
-4 1 -59 -47 -122 -108 -133 -128 -202 -184 -314 -253 -362 -225 -655 -293
-1509 -352 -159 -11 -355 -24 -435 -30 -353 -24 -536 -31 -589 -19 -55 12
-124 57 -149 99 -12 19 -8 17 18 -9 55 -55 122 -81 215 -81 93 0 948 53 1205
75 211 18 465 50 563 71 84 17 242 70 274 91 12 8 28 11 34 7 7 -4 9 -3 6 3
-8 13 20 26 36 16 7 -3 9 -3 5 2 -11 12 60 58 75 49 6 -4 9 -4 5 1 -4 4 9 22
30 39 20 16 61 54 89 84 32 32 57 51 64 46 8 -4 9 -3 5 5 -8 13 40 91 55 91 5
0 9 5 9 10 0 6 16 36 35 66 19 30 35 59 35 64 0 6 5 10 10 10 6 0 10 5 10 11
0 7 8 30 19 53 35 77 60 141 77 197 28 93 37 100 144 110 109 10 197 31 257
61 50 25 153 114 153 132 0 13 32 57 38 51 2 -1 -21 -54 -51 -116z"/>
<path d="M4740 2120 c0 -11 4 -20 9 -20 5 0 7 9 4 20 -3 11 -7 20 -9 20 -2 0
-4 -9 -4 -20z"/>
<path d="M4440 1776 c0 -2 7 -9 15 -16 9 -7 15 -8 15 -2 0 5 -7 12 -15 16 -8
3 -15 4 -15 2z"/>
<path d="M4420 1760 c0 -5 5 -10 11 -10 5 0 7 5 4 10 -3 6 -8 10 -11 10 -2 0
-4 -4 -4 -10z"/>
<path d="M4070 1480 c0 -5 5 -10 11 -10 5 0 7 5 4 10 -3 6 -8 10 -11 10 -2 0
-4 -4 -4 -10z"/>
<path d="M3950 1410 c-6 -11 -9 -20 -8 -20 2 0 11 9 21 20 9 11 13 20 7 20 -5
0 -14 -9 -20 -20z"/>
<path d="M1135 4350 c-3 -5 -1 -10 4 -10 6 0 11 5 11 10 0 6 -2 10 -4 10 -3 0
-8 -4 -11 -10z"/>
<path d="M1065 4339 c-22 -5 -59 -12 -82 -15 -30 -5 -40 -10 -36 -20 4 -11 9
-12 19 -3 8 6 14 9 14 5 0 -3 16 1 36 9 20 8 47 15 60 15 12 0 26 5 29 10 3 6
5 9 3 9 -2 -1 -21 -5 -43 -10z"/>
<path d="M863 4284 c-32 -14 -52 -34 -34 -34 6 0 11 5 11 11 0 7 9 9 21 6 12
-3 18 -3 14 1 -3 4 9 12 27 18 21 8 26 12 13 12 -11 0 -34 -6 -52 -14z"/>
<path d="M774 4206 c-10 -21 -9 -23 4 -18 11 4 13 2 7 -8 -5 -8 -4 -11 2 -7 8
5 7 57 -1 57 0 0 -6 -11 -12 -24z"/>
<path d="M756 4155 c-9 -26 -7 -32 5 -12 6 10 9 21 6 23 -2 3 -7 -2 -11 -11z"/>
<path d="M747 4113 c-3 -5 -1 -17 4 -28 6 -17 7 -16 6 8 -1 28 -3 32 -10 20z"/>
<path d="M1264 4095 c-3 -8 -4 -20 -2 -27 3 -7 7 -1 10 15 6 29 1 36 -8 12z"/>
<path d="M4891 4090 c0 -8 4 -22 9 -30 12 -18 12 -2 0 25 -6 13 -9 15 -9 5z"/>
<path d="M752 4020 c0 -14 2 -19 5 -12 2 6 2 18 0 25 -3 6 -5 1 -5 -13z"/>
<path d="M5376 3943 c-6 -14 -5 -15 5 -6 7 7 10 15 7 18 -3 3 -9 -2 -12 -12z"/>
<path d="M4915 3904 c2 -33 15 -43 15 -11 0 14 -4 28 -8 31 -4 2 -7 -6 -7 -20z"/>
<path d="M3513 3913 c-30 -6 -70 -55 -85 -106 -18 -60 -14 -203 7 -266 20 -63
74 -121 111 -121 40 0 81 30 101 74 28 62 25 241 -5 317 -32 80 -73 112 -129
102z m35 -33 c7 -11 17 -20 24 -20 7 0 3 7 -8 15 -10 8 -14 15 -8 15 14 0 60
-59 75 -96 22 -60 30 -245 10 -252 -5 -2 -7 -11 -5 -20 6 -24 -35 -68 -71 -76
-39 -8 -100 39 -89 69 5 11 4 16 -3 12 -15 -10 -33 62 -34 139 -1 98 10 163
31 176 10 7 15 18 12 26 -3 10 -1 13 6 8 7 -4 12 -3 12 3 0 6 7 7 17 4 11 -4
14 -3 9 5 -4 7 -3 12 1 12 5 0 14 -9 21 -20z"/>
<path d="M3467 3823 c-4 -3 -7 -11 -7 -17 0 -6 5 -5 12 2 6 6 9 14 7 17 -3 3
-9 2 -12 -2z"/>
<path d="M3615 3510 c-3 -5 -1 -10 4 -10 6 0 11 5 11 10 0 6 -2 10 -4 10 -3 0
-8 -4 -11 -10z"/>
<path d="M3655 3890 c3 -5 8 -10 11 -10 2 0 4 5 4 10 0 6 -5 10 -11 10 -5 0
-7 -4 -4 -10z"/>
<path d="M776 3863 c-6 -14 -5 -15 5 -6 7 7 10 15 7 18 -3 3 -9 -2 -12 -12z"/>
<path d="M2519 3833 c-13 -17 -13 -17 6 -3 11 8 22 16 24 17 2 2 0 3 -6 3 -6
0 -17 -8 -24 -17z"/>
<path d="M2532 3788 c-12 -6 -34 -36 -49 -67 -24 -49 -28 -67 -28 -151 0 -113
21 -184 70 -235 24 -26 41 -35 64 -35 49 0 70 16 97 73 57 123 12 366 -76 412
-33 17 -46 18 -78 3z m48 -19 c0 -5 5 -7 10 -4 33 21 89 -97 96 -203 6 -79
-11 -198 -29 -209 -6 -4 -7 -1 -3 8 4 8 0 5 -8 -5 -9 -11 -16 -24 -16 -29 0
-4 -10 -5 -21 -2 -14 5 -19 3 -15 -3 4 -6 -2 -8 -14 -5 -11 3 -23 9 -26 14 -3
5 3 6 13 3 17 -5 17 -5 0 6 -9 6 -22 8 -27 5 -6 -4 -7 1 -3 11 4 12 3 15 -5
10 -8 -5 -12 0 -12 13 0 12 -4 21 -9 21 -14 0 -22 28 -31 110 -12 103 9 216
45 248 28 23 55 29 55 11z"/>
<path d="M2545 3760 c-3 -5 -2 -10 4 -10 5 0 13 5 16 10 3 6 2 10 -4 10 -5 0
-13 -4 -16 -10z"/>
<path d="M2515 3740 c-3 -5 -1 -10 4 -10 6 0 11 5 11 10 0 6 -2 10 -4 10 -3 0
-8 -4 -11 -10z"/>
<path d="M2595 3740 c3 -5 8 -10 11 -10 2 0 4 5 4 10 0 6 -5 10 -11 10 -5 0
-7 -4 -4 -10z"/>
<path d="M2575 3710 c3 -5 8 -10 11 -10 2 0 4 5 4 10 0 6 -5 10 -11 10 -5 0
-7 -4 -4 -10z"/>
<path d="M2506 3425 c4 -8 8 -15 10 -15 2 0 4 7 4 15 0 8 -4 15 -10 15 -5 0
-7 -7 -4 -15z"/>
<path d="M4932 3755 c0 -16 2 -22 5 -12 2 9 2 23 0 30 -3 6 -5 -1 -5 -18z"/>
<path d="M820 3486 c0 -14 5 -26 10 -26 6 0 10 9 10 19 0 11 -4 23 -10 26 -6
4 -10 -5 -10 -19z"/>
<path d="M2413 3485 c-3 -9 -3 -18 -1 -21 3 -3 8 4 11 16 6 23 -1 27 -10 5z"/>
<path d="M3446 3443 c-6 -14 -5 -15 5 -6 7 7 10 15 7 18 -3 3 -9 -2 -12 -12z"/>
<path d="M2421 3414 c0 -11 3 -14 6 -6 3 7 2 16 -1 19 -3 4 -6 -2 -5 -13z"/>
<path d="M4961 3404 c0 -11 3 -14 6 -6 3 7 2 16 -1 19 -3 4 -6 -2 -5 -13z"/>
<path d="M842 3390 c0 -14 2 -19 5 -12 2 6 2 18 0 25 -3 6 -5 1 -5 -13z"/>
<path d="M1310 3391 c0 -6 4 -13 10 -16 6 -3 7 1 4 9 -7 18 -14 21 -14 7z"/>
<path d="M4971 3284 c0 -11 3 -14 6 -6 3 7 2 16 -1 19 -3 4 -6 -2 -5 -13z"/>
<path d="M4982 3215 c0 -16 2 -22 5 -12 2 9 2 23 0 30 -3 6 -5 -1 -5 -18z"/>
<path d="M5291 3184 c0 -11 3 -14 6 -6 3 7 2 16 -1 19 -3 4 -6 -2 -5 -13z"/>
<path d="M1342 3115 c0 -16 2 -22 5 -12 2 9 2 23 0 30 -3 6 -5 -1 -5 -18z"/>
<path d="M5300 3129 c0 -5 5 -7 10 -4 6 3 10 8 10 11 0 2 -4 4 -10 4 -5 0 -10
-5 -10 -11z"/>
<path d="M3858 3103 c-9 -10 -34 -54 -56 -98 -98 -194 -248 -319 -472 -396
-91 -32 -102 -33 -250 -34 -135 0 -165 3 -235 24 -173 51 -278 124 -412 285
-44 53 -123 22 -123 -48 0 -56 79 -153 197 -242 89 -67 212 -127 318 -155 103
-26 285 -36 394 -20 340 50 642 285 747 583 15 43 6 82 -24 104 -24 19 -66 17
-84 -3z m16 -25 c-6 -10 -4 -10 7 0 20 19 57 14 69 -9 12 -22 -11 -110 -36
-140 -8 -8 -14 -19 -14 -23 0 -4 -8 -15 -18 -24 -10 -10 -11 -12 -3 -7 12 9
12 7 2 -13 -11 -20 -15 -21 -28 -10 -14 12 -15 11 -5 -8 9 -18 8 -25 -7 -38
-10 -9 -21 -13 -26 -9 -4 5 -5 2 -1 -4 10 -19 -4 -39 -15 -22 -6 10 -9 8 -9
-8 0 -13 -5 -23 -11 -23 -5 0 -7 -4 -4 -10 3 -5 -1 -10 -9 -10 -9 0 -16 -7
-16 -15 0 -10 -8 -14 -28 -11 -21 2 -28 -1 -28 -15 0 -17 2 -17 18 -2 10 9 18
13 18 9 0 -24 -165 -137 -187 -129 -10 4 -14 2 -10 -4 9 -14 -106 -63 -227
-95 -111 -29 -334 -31 -453 -4 -50 11 -80 23 -76 29 4 6 1 7 -6 2 -7 -4 -23
-3 -34 3 -12 6 -39 18 -59 27 -21 10 -35 22 -31 28 3 6 1 7 -6 3 -25 -16 -191
99 -191 131 0 8 -4 12 -9 9 -11 -7 -90 79 -102 112 -15 38 -10 71 10 82 31 16
51 12 61 -14 5 -13 15 -27 22 -31 10 -6 11 -5 1 6 -7 7 -13 17 -13 22 0 6 17
-12 37 -39 21 -27 38 -53 38 -59 0 -5 5 -10 10 -10 6 0 31 -16 55 -36 88 -71
247 -141 356 -156 24 -3 42 -8 40 -12 -2 -3 57 -3 132 1 152 7 238 27 358 83
112 51 251 165 309 254 15 22 32 38 38 34 6 -3 7 -1 3 6 -4 6 1 23 12 39 10
15 27 48 37 75 10 26 22 47 27 47 5 0 6 -6 2 -12z"/>
<path d="M2381 2847 c2 -1 13 -9 24 -17 19 -14 19 -14 6 3 -7 9 -18 17 -24 17
-6 0 -8 -1 -6 -3z"/>
<path d="M2359 2828 c-7 -25 -7 -48 1 -53 6 -4 10 6 8 24 -2 26 -6 39 -9 29z"/>
<path d="M3763 2773 c-3 -10 -8 -22 -11 -27 -3 -5 0 -6 5 -3 11 7 25 47 17 47
-3 0 -7 -8 -11 -17z"/>
<path d="M3661 2771 c-8 -5 -9 -11 -3 -15 5 -3 12 1 16 9 6 17 6 18 -13 6z"/>
<path d="M2516 2651 c-4 -5 -2 -12 4 -16 6 -4 7 -11 4 -17 -4 -6 -2 -8 4 -5
10 7 11 32 0 42 -3 4 -9 2 -12 -4z"/>
<path d="M3660 2650 c-9 -6 -10 -10 -3 -10 6 0 15 5 18 10 8 12 4 12 -15 0z"/>
<path d="M3605 2641 c-7 -12 12 -24 25 -16 11 7 4 25 -10 25 -5 0 -11 -4 -15
-9z"/>
<path d="M2687 2589 c7 -7 15 -10 18 -7 3 3 -2 9 -12 12 -14 6 -15 5 -6 -5z"/>
<path d="M2780 2586 c0 -2 7 -7 16 -10 8 -3 12 -2 9 4 -6 10 -25 14 -25 6z"/>
<path d="M2597 2569 c7 -7 15 -10 18 -7 3 3 -2 9 -12 12 -14 6 -15 5 -6 -5z"/>
<path d="M3208 2543 c7 -3 16 -2 19 1 4 3 -2 6 -13 5 -11 0 -14 -3 -6 -6z"/>
<path d="M2838 2473 c7 -3 16 -2 19 1 4 3 -2 6 -13 5 -11 0 -14 -3 -6 -6z"/>
<path d="M2938 2453 c7 -3 16 -2 19 1 4 3 -2 6 -13 5 -11 0 -14 -3 -6 -6z"/>
<path d="M4981 3104 c0 -11 3 -14 6 -6 3 7 2 16 -1 19 -3 4 -6 -2 -5 -13z"/>
<path d="M1341 3004 c0 -11 3 -14 6 -6 3 7 2 16 -1 19 -3 4 -6 -2 -5 -13z"/>
<path d="M3630 2896 c0 -2 8 -10 18 -17 15 -13 16 -12 3 4 -13 16 -21 21 -21
13z"/>
<path d="M3666 2888 c3 -5 10 -6 15 -3 13 9 11 12 -6 12 -8 0 -12 -4 -9 -9z"/>
<path d="M911 2854 c0 -11 3 -14 6 -6 3 7 2 16 -1 19 -3 4 -6 -2 -5 -13z"/>
<path d="M3666 2855 c-11 -8 -15 -15 -9 -15 6 0 16 7 23 15 16 19 11 19 -14 0z"/>
<path d="M2281 2844 c0 -11 3 -14 6 -6 3 7 2 16 -1 19 -3 4 -6 -2 -5 -13z"/>
<path d="M2500 2841 c0 -5 5 -13 10 -16 6 -3 10 -2 10 4 0 5 -4 13 -10 16 -5
3 -10 2 -10 -4z"/>
<path d="M4981 2834 c0 -11 3 -14 6 -6 3 7 2 16 -1 19 -3 4 -6 -2 -5 -13z"/>
<path d="M1361 2804 c0 -11 3 -14 6 -6 3 7 2 16 -1 19 -3 4 -6 -2 -5 -13z"/>
<path d="M2662 2731 c-11 -7 -10 -9 3 -14 9 -4 14 -3 10 2 -3 5 1 12 7 14 7 3
9 6 3 6 -5 0 -16 -3 -23 -8z"/>
<path d="M3727 2608 c-10 -10 -23 -16 -30 -12 -7 4 -9 3 -4 -1 4 -5 16 -9 27
-10 11 -1 18 1 15 3 -3 3 0 11 7 19 17 21 5 22 -15 1z"/>
<path d="M3008 2593 c6 -2 18 -2 25 0 6 3 1 5 -13 5 -14 0 -19 -2 -12 -5z"/>
<path d="M3128 2593 c7 -3 16 -2 19 1 4 3 -2 6 -13 5 -11 0 -14 -3 -6 -6z"/>
<path d="M3625 2550 c-3 -5 -1 -10 4 -10 6 0 11 5 11 10 0 6 -2 10 -4 10 -3 0
-8 -4 -11 -10z"/>
<path d="M958 2483 c5 -21 7 -23 10 -9 2 10 0 22 -6 28 -6 6 -7 0 -4 -19z"/>
<path d="M1292 2445 c0 -16 2 -22 5 -12 2 9 2 23 0 30 -3 6 -5 -1 -5 -18z"/>
<path d="M2648 2443 c7 -3 16 -2 19 1 4 3 -2 6 -13 5 -11 0 -14 -3 -6 -6z"/>
<path d="M5251 2424 c0 -11 3 -14 6 -6 3 7 2 16 -1 19 -3 4 -6 -2 -5 -13z"/>
<path d="M4870 2415 c-8 -9 -8 -15 -2 -15 12 0 26 19 19 26 -2 2 -10 -2 -17
-11z"/>
<path d="M4840 2375 c-7 -9 -8 -15 -2 -15 5 0 12 7 16 15 3 8 4 15 2 15 -2 0
-9 -7 -16 -15z"/>
<path d="M4810 2350 c0 -5 5 -10 11 -10 5 0 7 5 4 10 -3 6 -8 10 -11 10 -2 0
-4 -4 -4 -10z"/>
<path d="M981 2324 c0 -11 3 -14 6 -6 3 7 2 16 -1 19 -3 4 -6 -2 -5 -13z"/>
<path d="M1403 2295 c0 -27 2 -38 4 -22 2 15 2 37 0 50 -2 12 -4 0 -4 -28z"/>
<path d="M996 2245 c4 -8 8 -15 10 -15 2 0 4 7 4 15 0 8 -4 15 -10 15 -5 0 -7
-7 -4 -15z"/>
<path d="M1421 2204 c0 -11 3 -14 6 -6 3 7 2 16 -1 19 -3 4 -6 -2 -5 -13z"/>
<path d="M4856 2133 c-6 -14 -5 -15 5 -6 7 7 10 15 7 18 -3 3 -9 -2 -12 -12z"/>
<path d="M1010 2111 c0 -6 4 -13 10 -16 6 -3 7 1 4 9 -7 18 -14 21 -14 7z"/>
<path d="M1422 2060 c0 -14 2 -19 5 -12 2 6 2 18 0 25 -3 6 -5 1 -5 -13z"/>
<path d="M5211 1954 c0 -11 3 -14 6 -6 3 7 2 16 -1 19 -3 4 -6 -2 -5 -13z"/>
<path d="M4686 1873 c-6 -14 -5 -15 5 -6 7 7 10 15 7 18 -3 3 -9 -2 -12 -12z"/>
<path d="M1372 1780 c0 -19 2 -27 5 -17 2 9 2 25 0 35 -3 9 -5 1 -5 -18z"/>
<path d="M5211 1794 c0 -11 3 -14 6 -6 3 7 2 16 -1 19 -3 4 -6 -2 -5 -13z"/>
<path d="M1451 1684 c0 -11 3 -14 6 -6 3 7 2 16 -1 19 -3 4 -6 -2 -5 -13z"/>
<path d="M4100 1665 c-13 -14 -19 -25 -13 -25 6 0 18 11 27 25 9 14 15 25 13
25 -2 0 -14 -11 -27 -25z"/>
<path d="M1072 1635 c0 -16 2 -22 5 -12 2 9 2 23 0 30 -3 6 -5 -1 -5 -18z"/>
<path d="M4456 1628 c3 -5 10 -6 15 -3 13 9 11 12 -6 12 -8 0 -12 -4 -9 -9z"/>
<path d="M1082 1570 c0 -14 2 -19 5 -12 2 6 2 18 0 25 -3 6 -5 1 -5 -13z"/>
<path d="M1087 1519 c4 -13 8 -18 11 -10 2 7 -1 18 -6 23 -8 8 -9 4 -5 -13z"/>
<path d="M1478 1363 c5 -21 7 -23 10 -9 2 10 0 22 -6 28 -6 6 -7 0 -4 -19z"/>
<path d="M5139 1313 c0 -5 -2 -16 -4 -26 -2 -11 -1 -16 3 -13 8 8 14 46 7 46
-3 0 -5 -3 -6 -7z"/>
<path d="M3525 1290 c-3 -6 1 -7 9 -4 18 7 21 14 7 14 -6 0 -13 -4 -16 -10z"/>
<path d="M3820 1270 c0 -6 7 -10 15 -10 8 0 15 2 15 4 0 2 -7 6 -15 10 -8 3
-15 1 -15 -4z"/>
<path d="M1501 1254 c0 -11 3 -14 6 -6 3 7 2 16 -1 19 -3 4 -6 -2 -5 -13z"/>
<path d="M3900 1250 c36 -11 52 -11 45 0 -3 6 -21 10 -38 9 -31 -1 -31 -1 -7
-9z"/>
<path d="M3972 1252 c-8 -6 -2 -9 18 -9 20 0 26 3 18 9 -7 4 -15 8 -18 8 -3 0
-11 -4 -18 -8z"/>
<path d="M4161 1255 c3 -2 102 -14 220 -25 117 -11 284 -27 369 -35 252 -24
315 -19 375 29 11 9 -6 4 -39 -10 -70 -32 -69 -32 -569 15 -345 33 -363 34
-356 26z"/>
<path d="M4488 1253 c7 -3 16 -2 19 1 4 3 -2 6 -13 5 -11 0 -14 -3 -6 -6z"/>
<path d="M4125 1230 c60 -11 214 -28 310 -35 39 -3 82 -7 97 -11 14 -3 28 -1
31 3 3 5 -2 10 -11 10 -9 1 -89 9 -177 17 -88 9 -191 18 -230 21 -66 4 -67 3
-20 -5z"/>
<path d="M1132 1190 c0 -19 2 -27 5 -17 2 9 2 25 0 35 -3 9 -5 1 -5 -18z"/>
<path d="M4898 1213 c7 -3 16 -2 19 1 4 3 -2 6 -13 5 -11 0 -14 -3 -6 -6z"/>
<path d="M2978 1203 c6 -2 18 -2 25 0 6 3 1 5 -13 5 -14 0 -19 -2 -12 -5z"/>
<path d="M2718 1188 c5 -5 16 -8 23 -6 8 3 3 7 -10 11 -17 4 -21 3 -13 -5z"/>
<path d="M2408 1163 c7 -3 16 -2 19 1 4 3 -2 6 -13 5 -11 0 -14 -3 -6 -6z"/>
<path d="M2765 1103 c-50 -8 -104 -26 -100 -33 7 -11 30 -7 49 9 8 7 20 10 25
6 6 -3 19 -1 30 4 11 6 21 7 23 2 2 -5 9 -3 15 4 13 14 7 15 -42 8z"/>
<path d="M2620 1063 c-8 -2 -22 -7 -30 -10 -8 -4 -19 -5 -24 -4 -4 1 -25 -4
-44 -10 -20 -7 -75 -20 -122 -29 -124 -25 -276 -58 -345 -74 -33 -8 -85 -18
-115 -22 -30 -4 -62 -11 -70 -16 -20 -12 111 -1 165 14 22 6 47 12 55 14 8 1
40 7 70 14 30 7 66 13 80 15 14 1 50 9 80 18 30 9 75 19 100 22 25 4 50 11 56
16 7 6 36 13 65 16 29 3 64 12 78 19 13 7 29 10 34 7 6 -3 7 -1 3 5 -8 13 -12
13 -36 5z"/>
<path d="M2078 963 c7 -3 16 -2 19 1 4 3 -2 6 -13 5 -11 0 -14 -3 -6 -6z"/>
<path d="M2018 953 c6 -2 18 -2 25 0 6 3 1 5 -13 5 -14 0 -19 -2 -12 -5z"/>
<path d="M1945 940 c-27 -7 -28 -8 -5 -8 14 0 34 3 45 8 25 11 2 11 -40 0z"/>
<path d="M1810 915 c-30 -7 -46 -13 -35 -13 11 -1 47 5 80 12 33 8 49 14 35
14 -14 0 -50 -6 -80 -13z"/>
<path d="M1713 893 c9 -2 23 -2 30 0 6 3 -1 5 -18 5 -16 0 -22 -2 -12 -5z"/>
<path d="M1244 876 c11 -9 24 -16 30 -16 12 0 7 5 -24 19 -24 11 -24 11 -6 -3z"/>
<path d="M1653 883 c9 -2 23 -2 30 0 6 3 -1 5 -18 5 -16 0 -22 -2 -12 -5z"/>
<path d="M1583 873 c9 -2 25 -2 35 0 9 3 1 5 -18 5 -19 0 -27 -2 -17 -5z"/>
<path d="M1513 863 c9 -2 25 -2 35 0 9 3 1 5 -18 5 -19 0 -27 -2 -17 -5z"/>
<path d="M1443 853 c9 -2 25 -2 35 0 9 3 1 5 -18 5 -19 0 -27 -2 -17 -5z"/>
<path d="M1348 843 c12 -2 32 -2 45 0 12 2 2 4 -23 4 -25 0 -35 -2 -22 -4z"/>
<path d="M2368 813 c6 -2 18 -2 25 0 6 3 1 5 -13 5 -14 0 -19 -2 -12 -5z"/>
<path d="M2428 803 c6 -2 18 -2 25 0 6 3 1 5 -13 5 -14 0 -19 -2 -12 -5z"/>
<path d="M2790 800 c-13 -9 -13 -10 0 -10 13 0 13 -1 0 -11 -12 -8 -12 -10 -1
-7 8 2 15 12 17 21 3 20 3 19 -16 7z"/>
<path d="M2505 789 c22 -4 51 -8 65 -7 16 0 11 3 -15 9 -22 4 -51 8 -65 7 -16
0 -11 -3 15 -9z"/>
<path d="M2748 783 c7 -3 16 -2 19 1 4 3 -2 6 -13 5 -11 0 -14 -3 -6 -6z"/>
<path d="M2605 775 c6 -2 91 -18 190 -34 99 -17 218 -37 265 -46 47 -8 164
-28 260 -45 96 -16 216 -36 265 -45 562 -100 719 -120 758 -99 12 7 -2 9 -47
6 -36 -2 -95 1 -133 8 -37 6 -93 16 -123 20 -30 5 -134 22 -231 39 -97 17
-205 35 -240 40 -35 6 -165 28 -289 50 -482 86 -721 123 -675 106z"/>
<path d="M4465 740 c-3 -5 -1 -10 4 -10 6 0 11 5 11 10 0 6 -2 10 -4 10 -3 0
-8 -4 -11 -10z"/>
<path d="M3028 733 c7 -3 16 -2 19 1 4 3 -2 6 -13 5 -11 0 -14 -3 -6 -6z"/>
<path d="M3078 723 c7 -3 16 -2 19 1 4 3 -2 6 -13 5 -11 0 -14 -3 -6 -6z"/>
<path d="M3198 703 c7 -3 16 -2 19 1 4 3 -2 6 -13 5 -11 0 -14 -3 -6 -6z"/>
<path d="M4340 550 c-23 -7 -23 -8 -3 -9 12 -1 25 4 28 9 3 6 5 10 3 9 -2 -1
-14 -5 -28 -9z"/>
<path d="M4123 5253 c9 -2 23 -2 30 0 6 3 -1 5 -18 5 -16 0 -22 -2 -12 -5z"/>
<path d="M910 5246 c0 -2 7 -9 15 -16 9 -7 15 -8 15 -2 0 5 -7 12 -15 16 -8 3
-15 4 -15 2z"/>
<path d="M3488 5213 c7 -3 16 -2 19 1 4 3 -2 6 -13 5 -11 0 -14 -3 -6 -6z"/>
<path d="M3268 5203 c6 -2 18 -2 25 0 6 3 1 5 -13 5 -14 0 -19 -2 -12 -5z"/>
<path d="M3118 5188 c5 -5 16 -8 23 -6 8 3 3 7 -10 11 -17 4 -21 3 -13 -5z"/>
<path d="M5386 5181 c-3 -5 1 -11 9 -14 9 -4 12 -1 8 9 -6 16 -10 17 -17 5z"/>
<path d="M2958 5173 c6 -2 18 -2 25 0 6 3 1 5 -13 5 -14 0 -19 -2 -12 -5z"/>
<path d="M4859 5123 c-13 -16 -12 -17 4 -4 9 7 17 15 17 17 0 8 -8 3 -21 -13z"/>
<path d="M2248 5123 c7 -3 16 -2 19 1 4 3 -2 6 -13 5 -11 0 -14 -3 -6 -6z"/>
<path d="M2088 5113 c7 -3 16 -2 19 1 4 3 -2 6 -13 5 -11 0 -14 -3 -6 -6z"/>
<path d="M780 5091 c0 -6 4 -13 10 -16 6 -3 7 1 4 9 -7 18 -14 21 -14 7z"/>
<path d="M1235 5009 c-4 -6 -5 -12 -2 -15 2 -3 7 2 10 11 7 17 1 20 -8 4z"/>
<path d="M5610 4791 c0 -6 4 -13 10 -16 6 -3 7 1 4 9 -7 18 -14 21 -14 7z"/>
<path d="M5641 4694 c0 -11 3 -14 6 -6 3 7 2 16 -1 19 -3 4 -6 -2 -5 -13z"/>
<path d="M5406 4652 c-2 -4 4 -8 14 -8 10 0 16 4 14 8 -3 4 -9 8 -14 8 -5 0
-11 -4 -14 -8z"/>
<path d="M749 4323 c-13 -16 -12 -17 4 -4 9 7 17 15 17 17 0 8 -8 3 -21 -13z"/>
<path d="M5672 3965 c0 -16 2 -22 5 -12 2 9 2 23 0 30 -3 6 -5 -1 -5 -18z"/>
<path d="M561 3874 c0 -11 3 -14 6 -6 3 7 2 16 -1 19 -3 4 -6 -2 -5 -13z"/>
<path d="M561 3714 c0 -11 3 -14 6 -6 3 7 2 16 -1 19 -3 4 -6 -2 -5 -13z"/>
<path d="M562 3085 c0 -16 2 -22 5 -12 2 9 2 23 0 30 -3 6 -5 -1 -5 -18z"/>
<path d="M811 2994 c0 -11 3 -14 6 -6 3 7 2 16 -1 19 -3 4 -6 -2 -5 -13z"/>
<path d="M562 2240 c0 -19 2 -27 5 -17 2 9 2 25 0 35 -3 9 -5 1 -5 -18z"/>
<path d="M561 1844 c0 -11 3 -14 6 -6 3 7 2 16 -1 19 -3 4 -6 -2 -5 -13z"/>
<path d="M5672 1825 c0 -16 2 -22 5 -12 2 9 2 23 0 30 -3 6 -5 -1 -5 -18z"/>
<path d="M561 1764 c0 -11 3 -14 6 -6 3 7 2 16 -1 19 -3 4 -6 -2 -5 -13z"/>
<path d="M563 1660 c0 -25 2 -35 4 -22 2 12 2 32 0 45 -2 12 -4 2 -4 -23z"/>
<path d="M616 1063 c-6 -14 -5 -15 5 -6 7 7 10 15 7 18 -3 3 -9 -2 -12 -12z"/>
<path d="M5569 863 c-13 -16 -12 -17 4 -4 9 7 17 15 17 17 0 8 -8 3 -21 -13z"/>
<path d="M5551 824 c0 -11 3 -14 6 -6 3 7 2 16 -1 19 -3 4 -6 -2 -5 -13z"/>
<path d="M5535 790 c-3 -5 -1 -10 4 -10 6 0 11 5 11 10 0 6 -2 10 -4 10 -3 0
-8 -4 -11 -10z"/>
<path d="M5503 728 c-15 -20 -25 -38 -20 -38 3 0 12 11 21 25 17 26 16 35 -1
13z"/>
<path d="M760 711 c0 -6 4 -13 10 -16 6 -3 7 1 4 9 -7 18 -14 21 -14 7z"/>
<path d="M4521 624 c0 -11 3 -14 6 -6 3 7 2 16 -1 19 -3 4 -6 -2 -5 -13z"/>
<path d="M5317 569 c7 -7 15 -10 18 -7 3 3 -2 9 -12 12 -14 6 -15 5 -6 -5z"/>
<path d="M5296 534 c-5 -14 -4 -15 9 -4 17 14 19 20 6 20 -5 0 -12 -7 -15 -16z"/>
<path d="M940 531 c0 -6 4 -13 10 -16 6 -3 7 1 4 9 -7 18 -14 21 -14 7z"/>
<path d="M5287 493 c3 -7 6 -13 8 -13 1 0 7 6 13 13 8 10 6 13 -7 13 -11 0
-17 -6 -14 -13z"/>
<path d="M5235 480 c-3 -6 1 -7 9 -4 18 7 21 14 7 14 -6 0 -13 -4 -16 -10z"/>
<path d="M4188 433 c6 -2 18 -2 25 0 6 3 1 5 -13 5 -14 0 -19 -2 -12 -5z"/>
<path d="M570 911 c0 -6 4 -13 10 -16 6 -3 7 1 4 9 -7 18 -14 21 -14 7z"/>
<path d="M659 713 c-13 -16 -12 -17 4 -4 16 13 21 21 13 21 -2 0 -10 -8 -17
-17z"/>
<path d="M5536 672 c-3 -5 1 -9 9 -9 8 0 12 4 9 9 -3 4 -7 8 -9 8 -2 0 -6 -4
-9 -8z"/>
<path d="M806 508 c3 -5 10 -6 15 -3 13 9 11 12 -6 12 -8 0 -12 -4 -9 -9z"/>
<path d="M920 445 c13 -14 26 -25 28 -25 3 0 -5 11 -18 25 -13 14 -26 25 -28
25 -3 0 5 -11 18 -25z"/>
<path d="M5339 468 c-5 -16 -4 -46 2 -42 4 2 7 13 6 24 -1 17 -5 26 -8 18z"/>
<path d="M990 386 c0 -2 7 -7 16 -10 8 -3 12 -2 9 4 -6 10 -25 14 -25 6z"/>
<path d="M5250 366 c0 -2 7 -7 16 -10 8 -3 12 -2 9 4 -6 10 -25 14 -25 6z"/>
<path d="M1125 280 c-3 -6 1 -7 9 -4 18 7 21 14 7 14 -6 0 -13 -4 -16 -10z"/>
<path d="M4928 233 c7 -3 16 -2 19 1 4 3 -2 6 -13 5 -11 0 -14 -3 -6 -6z"/>
<path d="M1280 216 c0 -2 7 -7 16 -10 8 -3 12 -2 9 4 -6 10 -25 14 -25 6z"/>
<path d="M1390 211 c8 -6 28 -11 44 -11 39 0 31 6 -19 14 -29 5 -36 4 -25 -3z"/>
<path d="M1503 193 c9 -2 23 -2 30 0 6 3 -1 5 -18 5 -16 0 -22 -2 -12 -5z"/>
<path d="M4718 193 c12 -2 30 -2 40 0 9 3 -1 5 -23 4 -22 0 -30 -2 -17 -4z"/>
<path d="M2218 183 c7 -3 16 -2 19 1 4 3 -2 6 -13 5 -11 0 -14 -3 -6 -6z"/>
<path d="M3228 183 c7 -3 16 -2 19 1 4 3 -2 6 -13 5 -11 0 -14 -3 -6 -6z"/>
</g>
</svg>
