<?xml version="1.0" standalone="no"?>
<!DOCTYPE svg PUBLIC "-//W3C//DTD SVG 20010904//EN"
 "http://www.w3.org/TR/2001/REC-SVG-20010904/DTD/svg10.dtd">
<svg version="1.0" xmlns="http://www.w3.org/2000/svg"
 width="600.000000pt" height="600.000000pt" viewBox="0 0 600.000000 600.000000"
 preserveAspectRatio="xMidYMid meet">
<g transform="translate(0.000000,600.000000) scale(0.100000,-0.100000)"
fill="#000000" stroke="none">
<path d="M2084 5010 c-77 -25 -172 -86 -236 -153 -56 -58 -120 -182 -137 -265
-7 -36 -11 -325 -11 -891 0 -803 1 -841 20 -915 26 -103 69 -177 149 -256 75
-75 159 -123 252 -145 96 -22 1652 -22 1748 0 185 44 348 206 402 400 11 41
14 207 14 920 l0 870 -22 70 c-53 168 -198 315 -361 365 -62 19 -94 20 -911
19 -806 0 -849 -1 -907 -19z m1691 -10 c19 -7 24 -7 19 2 -5 8 -2 9 10 5 10
-4 22 -7 26 -7 5 0 7 -10 5 -21 -3 -12 -1 -18 3 -15 4 4 7 13 7 19 0 7 9 11
20 9 11 -2 31 -5 44 -7 13 -2 27 -9 31 -16 4 -6 13 -8 19 -5 6 4 11 3 11 -3 0
-5 9 -13 20 -16 11 -4 18 -11 15 -16 -4 -5 1 -10 9 -10 9 -1 20 -2 24 -3 19
-3 102 -91 97 -103 -2 -8 0 -11 5 -8 6 3 13 -1 16 -9 3 -9 10 -13 15 -11 11 7
23 -40 14 -54 -3 -6 0 -9 7 -6 12 5 33 -29 43 -71 3 -11 9 -39 15 -64 11 -47
9 -1748 -2 -1802 -3 -15 -13 -39 -23 -54 -11 -17 -12 -24 -4 -18 12 6 12 5 0
-9 -7 -9 -17 -14 -22 -11 -5 3 -6 -2 -3 -10 3 -9 1 -16 -6 -16 -6 0 -8 -5 -4
-12 5 -7 2 -9 -9 -5 -11 4 -14 2 -11 -8 8 -19 -45 -95 -74 -106 -13 -5 -21
-13 -17 -18 3 -6 -5 -15 -17 -22 -22 -12 -22 -11 -8 7 14 18 14 18 -2 5 -10
-7 -18 -21 -18 -30 0 -12 -2 -13 -9 -3 -7 11 -9 11 -14 -1 -3 -8 -25 -24 -50
-36 -97 -47 -134 -49 -979 -47 -843 3 -861 3 -963 51 -55 26 -200 158 -191
173 3 6 -1 13 -10 16 -17 7 -11 21 9 21 7 1 10 7 8 15 -2 8 -4 20 -5 27 -1 7
-5 15 -9 19 -3 4 -4 -6 -1 -21 3 -19 1 -24 -7 -19 -8 4 -9 3 -5 -4 4 -7 3 -12
-3 -12 -13 0 -54 87 -46 100 3 5 2 10 -4 10 -5 0 -10 8 -10 18 0 9 -3 37 -5
62 -3 25 -5 416 -5 870 0 454 0 834 0 844 0 11 5 29 11 40 6 11 13 34 15 51 4
35 36 81 53 77 6 -1 9 2 5 8 -3 6 -11 7 -17 4 -6 -4 -6 2 1 15 7 11 16 21 21
21 5 0 14 10 21 21 9 17 8 20 -2 14 -8 -5 -10 -4 -5 3 4 7 14 12 22 12 8 0 13
4 10 9 -3 4 13 23 36 41 23 19 38 29 35 23 -4 -7 -2 -15 4 -19 8 -4 9 -3 5 4
-4 7 -2 12 4 12 6 0 8 5 5 10 -3 6 -1 10 5 10 6 0 8 5 4 13 -5 7 0 6 11 -3 10
-8 16 -10 12 -3 -4 7 4 16 22 24 16 7 28 16 26 19 -2 3 5 6 15 6 10 0 16 -4
14 -8 -3 -4 0 -8 5 -8 6 0 11 7 11 16 0 8 4 13 9 9 5 -3 12 -1 15 3 3 5 19 9
37 10 17 0 33 3 36 6 11 11 1570 7 1598 -4z"/>
<path d="M3610 4899 c-58 -4 -146 -10 -196 -14 -50 -3 -124 -8 -165 -10 -41
-2 -126 -7 -189 -11 -63 -5 -145 -9 -183 -9 -37 0 -67 -2 -67 -5 0 -3 -8 -6
-17 -6 -161 -8 -264 -15 -277 -20 -9 -4 -16 -1 -16 6 0 9 -4 9 -12 2 -7 -5
-89 -15 -183 -22 -143 -10 -180 -16 -234 -38 -36 -14 -60 -27 -54 -29 6 -2 9
-13 6 -23 -3 -11 -9 -18 -13 -15 -5 3 -7 -46 -5 -109 3 -112 2 -114 -22 -125
-15 -7 -22 -7 -18 -1 9 15 -8 12 -31 -5 -10 -8 -29 -15 -42 -15 -27 0 -62 -19
-80 -42 -7 -10 -19 -18 -25 -18 -7 0 -6 4 3 11 13 9 13 10 0 7 -8 -3 -14 -15
-15 -29 0 -13 -4 -29 -8 -36 -4 -6 -4 -14 0 -16 5 -3 8 -46 8 -95 0 -50 3 -85
7 -79 7 11 13 -33 9 -57 -1 -5 3 -30 8 -55 6 -25 13 -73 16 -106 6 -74 14
-142 21 -175 9 -41 26 -182 27 -222 1 -21 4 -38 8 -38 4 0 7 -13 7 -30 -1 -16
-5 -27 -11 -23 -5 3 -1 -6 8 -21 12 -18 15 -36 11 -61 -4 -19 -3 -35 2 -35 5
0 9 -12 9 -27 0 -16 5 -64 12 -108 7 -44 14 -99 16 -122 3 -23 9 -61 14 -85 6
-24 8 -55 5 -68 -4 -18 -3 -21 4 -11 7 10 10 4 10 -22 0 -58 13 -137 23 -137
5 0 9 -6 9 -14 0 -8 11 -23 25 -34 13 -11 21 -23 17 -27 -4 -5 2 -5 13 -2 19
7 19 6 2 -7 -16 -12 -16 -14 -2 -20 9 -3 14 -2 11 3 -3 5 20 9 52 9 66 0 148
8 160 16 16 9 104 18 99 9 -3 -4 12 -7 34 -5 22 2 46 -1 54 -8 8 -6 18 -9 23
-6 4 2 26 1 48 -4 21 -5 59 -12 84 -16 25 -3 48 -8 52 -11 4 -2 36 -6 70 -9
82 -7 98 -12 78 -24 -10 -6 -2 -8 25 -5 30 4 35 3 20 -4 -17 -8 -17 -10 -3
-10 9 -1 20 4 23 9 3 6 18 10 33 9 24 0 25 -1 7 -8 -15 -6 -11 -9 20 -10 86
-3 113 -6 108 -13 -2 -5 6 -7 19 -7 13 0 66 -6 118 -14 52 -9 98 -13 104 -10
5 3 6 1 3 -4 -4 -6 0 -13 8 -17 8 -3 17 -1 19 3 5 8 47 5 76 -6 8 -4 18 -5 22
-5 4 1 38 -4 75 -12 72 -15 137 -16 150 -1 5 4 2 5 -6 0 -10 -5 -12 -4 -7 4 4
6 15 10 23 9 9 -2 18 4 20 12 4 13 3 13 -6 0 -8 -11 -11 -11 -11 -2 0 7 7 15
15 18 8 4 15 13 15 21 0 8 3 12 8 10 4 -3 8 5 8 16 3 49 29 177 36 177 4 0 6
16 3 35 l-4 35 72 0 c40 0 88 -4 107 -10 19 -5 36 -6 39 -1 4 5 22 16 42 24
56 23 77 90 84 259 3 73 8 160 11 192 3 33 10 128 15 210 15 235 20 290 29
300 5 4 6 33 3 64 -4 33 -2 53 3 49 6 -3 8 30 7 81 -1 48 1 81 6 74 5 -8 8 -3
8 15 0 15 6 96 14 178 22 238 19 260 -41 300 -16 10 -26 23 -24 27 3 4 -6 8
-19 8 -13 0 -45 6 -70 14 -34 10 -47 11 -47 3 0 -8 -3 -8 -8 -2 -4 6 -17 10
-30 9 -30 -2 -40 20 -47 102 -4 38 -11 74 -16 80 -5 6 -7 20 -3 30 4 14 3 16
-4 5 -8 -11 -11 -9 -17 8 -3 12 -11 19 -16 16 -5 -4 -9 -2 -9 3 0 11 -41 28
-80 34 -14 3 -72 1 -130 -3z m179 -33 c45 -24 62 -60 73 -160 l10 -93 102 -18
c155 -27 186 -50 186 -142 0 -29 -18 -243 -39 -475 -22 -233 -49 -562 -61
-732 -14 -210 -25 -317 -35 -336 -17 -32 -60 -62 -89 -62 -29 1 -141 11 -196
18 -25 4 -71 7 -103 8 -31 0 -57 4 -57 7 0 3 -44 6 -97 6 -54 1 -111 6 -126
12 -22 9 -41 8 -83 -5 -30 -8 -64 -13 -76 -9 -19 5 -20 4 -8 -5 12 -9 9 -11
-17 -8 -18 3 -29 0 -26 -5 3 -5 -11 -8 -35 -5 -22 2 -39 0 -36 -3 5 -9 -173
-22 -186 -14 -5 3 -10 1 -10 -5 0 -7 -23 -11 -67 -10 -38 1 -76 -1 -86 -5 -10
-4 -52 -5 -93 -3 -46 3 -74 1 -74 -5 0 -6 -31 -8 -85 -4 -59 4 -84 3 -79 -5 4
-7 -21 -9 -80 -7 -93 4 -92 4 -142 75 -19 27 -46 336 -114 1274 -11 157 -22
288 -23 291 -1 3 -18 0 -37 -7 l-35 -14 35 6 c26 4 31 3 20 -5 -8 -6 -10 -11
-4 -11 6 0 9 -10 7 -22 -2 -13 0 -42 5 -65 7 -30 7 -41 -1 -36 -7 4 -8 -2 -3
-18 11 -35 18 -105 31 -319 9 -135 14 -206 19 -245 9 -75 19 -220 18 -275 -1
-30 3 -59 9 -66 5 -6 9 -35 8 -65 0 -30 4 -85 9 -124 4 -38 8 -109 8 -157 -1
-48 2 -80 6 -70 5 12 7 10 7 -10 1 -43 32 -110 47 -104 8 3 13 2 13 -2 -3 -20
4 -28 32 -41 17 -7 45 -13 62 -13 113 3 264 12 277 16 8 2 50 7 92 10 43 3 97
8 120 11 74 9 -80 -34 -257 -71 -137 -30 -149 -34 -85 -28 41 3 87 6 103 7 15
1 27 5 27 8 0 4 12 9 28 12 15 3 38 8 52 11 14 4 43 11 65 16 22 5 65 16 95
25 30 9 76 17 102 18 25 1 44 6 41 10 -3 5 4 4 15 -2 11 -6 29 -11 39 -10 13
1 11 3 -7 9 -19 6 -10 8 32 8 31 0 62 3 69 7 11 7 54 14 99 17 8 0 21 5 27 10
7 6 19 8 27 5 8 -3 16 -1 18 5 5 14 102 12 218 -4 52 -8 125 -14 162 -13 39 0
68 -4 68 -10 -1 -38 -41 -249 -52 -271 -18 -37 -61 -67 -95 -66 -50 2 -81 7
-89 14 -4 4 -17 5 -29 2 -13 -3 -26 -1 -29 5 -4 6 -20 8 -38 4 -24 -5 -29 -3
-23 7 6 9 0 11 -24 5 -21 -4 -31 -3 -31 5 0 8 -10 9 -31 5 -19 -4 -29 -3 -26
3 4 5 -15 9 -47 9 -29 0 -60 4 -67 9 -8 4 -27 7 -43 5 -15 -1 -26 1 -23 6 3 4
-20 9 -51 10 -30 1 -58 6 -61 10 -6 8 -46 13 -103 13 -15 0 -30 5 -33 10 -4 6
-15 8 -25 5 -10 -3 -21 -1 -25 5 -3 6 -11 8 -16 4 -6 -3 -38 -1 -72 5 -34 6
-107 18 -162 26 -55 9 -117 21 -137 26 -27 7 -62 5 -125 -6 -132 -23 -185 -20
-222 10 -46 39 -42 23 -121 615 -10 80 -44 334 -75 565 -31 231 -53 433 -50
450 10 54 49 82 149 106 l91 22 -3 114 c-4 123 3 146 52 178 25 17 216 33
1071 89 209 14 400 27 425 29 116 9 182 6 209 -7z m338 -1048 c-3 -8 -6 -5 -6
6 -1 11 2 17 5 13 3 -3 4 -12 1 -19z"/>
<path d="M3718 4853 c7 -3 16 -2 19 1 4 3 -2 6 -13 5 -11 0 -14 -3 -6 -6z"/>
<path d="M3498 4843 c7 -3 16 -2 19 1 4 3 -2 6 -13 5 -11 0 -14 -3 -6 -6z"/>
<path d="M3548 4843 c7 -3 16 -2 19 1 4 3 -2 6 -13 5 -11 0 -14 -3 -6 -6z"/>
<path d="M3398 4833 c7 -3 16 -2 19 1 4 3 -2 6 -13 5 -11 0 -14 -3 -6 -6z"/>
<path d="M3260 4826 c0 -2 7 -7 16 -10 8 -3 12 -2 9 4 -6 10 -25 14 -25 6z"/>
<path d="M3767 4819 c7 -7 15 -10 18 -7 3 3 -2 9 -12 12 -14 6 -15 5 -6 -5z"/>
<path d="M3803 4815 c0 -8 4 -12 9 -9 5 3 6 10 3 15 -9 13 -12 11 -12 -6z"/>
<path d="M3058 4813 c6 -2 18 -2 25 0 6 3 1 5 -13 5 -14 0 -19 -2 -12 -5z"/>
<path d="M3128 4813 c6 -2 18 -2 25 0 6 3 1 5 -13 5 -14 0 -19 -2 -12 -5z"/>
<path d="M3228 4813 c7 -3 16 -2 19 1 4 3 -2 6 -13 5 -11 0 -14 -3 -6 -6z"/>
<path d="M2903 4803 c9 -2 23 -2 30 0 6 3 -1 5 -18 5 -16 0 -22 -2 -12 -5z"/>
<path d="M2808 4793 c7 -3 16 -2 19 1 4 3 -2 6 -13 5 -11 0 -14 -3 -6 -6z"/>
<path d="M2338 4763 c12 -2 30 -2 40 0 9 3 -1 5 -23 4 -22 0 -30 -2 -17 -4z"/>
<path d="M2208 4753 c6 -2 18 -2 25 0 6 3 1 5 -13 5 -14 0 -19 -2 -12 -5z"/>
<path d="M3874 4570 c3 -19 20 -174 37 -345 38 -374 43 -599 16 -687 -10 -32
-22 -60 -27 -63 -5 -3 -6 -13 -3 -22 4 -10 2 -14 -4 -10 -6 4 -18 -2 -27 -12
-33 -37 -124 -66 -217 -70 -11 -1 -29 -32 -54 -93 -21 -51 -42 -98 -47 -105
-6 -7 -6 -18 -2 -24 4 -7 3 -9 -4 -5 -5 3 -20 -9 -31 -28 -42 -67 -144 -152
-220 -181 -39 -16 -69 -30 -67 -32 2 -3 39 10 83 29 43 18 82 31 86 30 5 -1 6
2 2 8 -3 5 0 10 8 10 8 0 29 15 48 34 18 19 37 32 43 29 5 -3 6 -1 2 6 -9 14
20 45 34 36 5 -3 7 0 4 8 -3 8 6 26 20 40 17 17 21 27 13 30 -8 3 -6 10 7 23
15 15 18 16 13 3 -3 -9 0 -16 7 -16 13 0 14 21 1 50 -4 11 -3 23 4 30 6 6 11
19 11 30 0 11 4 15 11 11 7 -4 9 0 5 13 -4 13 0 25 10 34 14 12 113 34 186 41
9 1 16 5 15 8 -1 3 10 19 26 35 39 43 34 21 -18 -69 -102 -180 -273 -335 -449
-407 -45 -18 -54 -25 -37 -27 12 -2 28 2 36 8 8 6 18 9 24 6 5 -3 11 -3 13 1
6 14 76 45 86 39 6 -4 13 -2 17 4 4 6 11 7 17 4 7 -4 8 -2 4 5 -6 9 -11 9 -22
0 -10 -8 -14 -8 -14 0 0 6 5 12 10 12 6 1 16 2 23 3 6 1 11 7 10 12 -1 6 4 11
12 11 8 0 12 -4 9 -8 -2 -4 0 -10 5 -13 5 -4 8 5 6 19 -2 22 5 29 27 26 3 0
24 20 46 44 22 25 45 45 51 45 6 0 10 6 8 13 -1 6 4 11 11 9 8 -1 11 1 9 5 -3
5 6 22 20 38 14 17 22 23 17 15 -4 -9 -3 -12 2 -7 5 5 10 13 10 18 1 5 2 13 3
18 0 6 10 8 21 6 12 -2 18 0 15 6 -4 5 -12 6 -18 2 -7 -4 -5 1 3 11 19 24 38
56 46 79 4 10 12 16 19 13 9 -3 11 2 7 16 -4 16 -2 19 8 13 9 -5 11 -4 6 4 -4
6 0 23 9 38 9 14 12 22 6 19 -16 -10 -14 -1 8 42 11 21 22 55 26 75 4 22 11
34 18 30 6 -4 7 -1 2 6 -4 7 -7 72 -8 144 0 73 -3 144 -7 158 -5 16 -4 31 3
38 7 7 7 14 -2 24 -6 8 -9 31 -6 53 3 27 2 34 -5 24 -7 -11 -9 -4 -8 25 1 22
-3 83 -10 135 -11 96 -16 145 -28 280 -9 101 -8 98 -23 113 -10 10 -11 5 -7
-23z"/>
<path d="M3958 4573 c7 -3 16 -2 19 1 4 3 -2 6 -13 5 -11 0 -14 -3 -6 -6z"/>
<path d="M4048 4553 c6 -2 18 -2 25 0 6 3 1 5 -13 5 -14 0 -19 -2 -12 -5z"/>
<path d="M4080 4511 c0 -6 4 -13 10 -16 6 -3 7 1 4 9 -7 18 -14 21 -14 7z"/>
<path d="M3851 4494 c0 -11 3 -14 6 -6 3 7 2 16 -1 19 -3 4 -6 -2 -5 -13z"/>
<path d="M4105 4479 c-4 -6 -5 -12 -2 -15 2 -3 7 2 10 11 7 17 1 20 -8 4z"/>
<path d="M4091 4334 c0 -11 3 -14 6 -6 3 7 2 16 -1 19 -3 4 -6 -2 -5 -13z"/>
<path d="M1816 4328 c3 -5 10 -6 15 -3 13 9 11 12 -6 12 -8 0 -12 -4 -9 -9z"/>
<path d="M3257 4227 c-3 -8 1 -14 8 -14 7 0 11 6 8 14 -3 7 -6 13 -8 13 -2 0
-5 -6 -8 -13z"/>
<path d="M3177 4208 c-57 -44 -43 -219 20 -234 74 -19 100 159 32 227 -22 22
-29 23 -52 7z m48 -38 c10 -11 15 -23 12 -27 -4 -3 -7 0 -7 7 0 7 -2 11 -5 8
-3 -2 2 -20 11 -38 14 -26 15 -39 6 -68 -6 -19 -8 -40 -5 -45 3 -6 1 -7 -5 -3
-6 3 -14 2 -17 -4 -11 -18 -35 9 -35 39 0 18 -3 22 -9 13 -5 -9 -9 8 -10 44
-1 41 4 63 16 76 20 23 26 23 48 -2z"/>
<path d="M3171 4144 c0 -11 3 -14 6 -6 3 7 2 16 -1 19 -3 4 -6 -2 -5 -13z"/>
<path d="M2679 4128 c-16 -26 -19 -46 -17 -95 6 -103 62 -154 107 -97 47 59 7
224 -54 224 -8 0 -24 -15 -36 -32z m59 -14 c18 -18 19 -23 25 -105 3 -45 0
-58 -14 -67 -9 -6 -20 -8 -24 -4 -4 4 -12 7 -17 7 -11 0 -15 22 -20 109 -3 40
0 50 14 54 10 2 15 8 12 13 -9 15 6 10 24 -7z"/>
<path d="M2733 3983 c0 -9 4 -10 14 -2 7 6 13 12 13 14 0 1 -6 2 -13 2 -8 0
-14 -6 -14 -14z"/>
<path d="M3966 3917 c3 -10 9 -15 12 -12 3 3 0 11 -7 18 -10 9 -11 8 -5 -6z"/>
<path d="M3326 3828 c3 -5 10 -6 15 -3 13 9 11 12 -6 12 -8 0 -12 -4 -9 -9z"/>
<path d="M3365 3812 c-5 -4 -21 -28 -34 -54 -50 -100 -172 -186 -295 -209
-119 -22 -277 29 -353 114 -48 54 -60 62 -78 47 -55 -45 74 -177 214 -221 128
-40 299 -21 402 43 84 53 180 166 194 229 10 43 -20 73 -50 51z m24 -38 c-6
-8 -8 -14 -3 -14 4 0 3 -5 -3 -11 -6 -6 -9 -18 -6 -25 3 -8 -2 -17 -11 -20 -9
-3 -14 -10 -11 -14 3 -5 -6 -17 -20 -28 -14 -11 -25 -25 -25 -30 0 -6 -13 -19
-30 -29 -16 -9 -30 -21 -30 -25 0 -4 -9 -8 -21 -8 -11 0 -17 -4 -14 -10 4 -6
-1 -7 -11 -3 -10 4 -15 2 -11 -3 3 -6 -3 -15 -13 -22 -14 -9 -19 -8 -24 3 -3
8 -11 15 -18 15 -10 0 -10 -2 0 -9 16 -10 1 -24 -42 -41 -27 -10 -28 -9 -15 6
13 16 12 16 -11 4 -30 -16 -49 -20 -115 -19 -74 1 -85 2 -85 12 0 5 -8 6 -17
3 -10 -3 -29 1 -43 9 -18 10 -20 14 -8 15 9 0 20 -4 23 -10 3 -5 11 -10 18
-10 6 0 1 7 -11 16 -13 9 -32 14 -44 11 -22 -6 -68 11 -68 25 0 5 -4 6 -10 3
-6 -4 -7 1 -3 11 5 13 3 15 -7 9 -9 -6 -11 -4 -6 4 5 8 3 11 -5 9 -15 -3 -69
43 -69 58 0 5 5 2 10 -6 6 -9 10 -10 10 -3 0 7 -8 16 -17 22 -10 5 -15 12 -11
16 3 4 16 -3 27 -14 12 -12 21 -18 21 -14 0 4 12 -9 27 -30 16 -22 32 -36 40
-32 8 2 12 1 9 -4 -7 -10 63 -42 97 -44 14 -1 23 -5 21 -8 -2 -4 3 -10 12 -13
8 -3 13 -2 9 3 -3 5 11 5 32 -1 20 -5 49 -7 63 -4 15 3 31 2 34 -1 11 -11 45
-10 43 1 -1 6 10 9 27 8 15 -2 26 0 22 6 -3 5 10 14 29 20 20 5 35 6 35 1 0
-9 26 10 69 52 15 15 37 29 49 33 12 4 22 12 22 17 0 6 4 7 10 4 5 -3 7 0 4 9
-7 17 24 68 37 60 5 -3 9 2 9 11 0 25 20 56 31 49 6 -4 6 -11 -2 -20z"/>
<path d="M3258 3622 c-15 -10 -30 -23 -33 -30 -2 -7 10 -1 29 13 18 14 36 22
41 17 5 -4 5 -1 1 6 -4 6 -8 12 -9 11 -1 0 -14 -8 -29 -17z"/>
<path d="M2636 3752 c-3 -5 1 -9 9 -9 8 0 12 4 9 9 -3 4 -7 8 -9 8 -2 0 -6 -4
-9 -8z"/>
<path d="M2705 3749 c-4 -6 -5 -12 -2 -15 2 -3 7 2 10 11 7 17 1 20 -8 4z"/>
<path d="M2675 3731 c-3 -5 -2 -12 3 -15 5 -3 9 1 9 9 0 17 -3 19 -12 6z"/>
<path d="M2130 3695 c0 -5 5 -17 10 -25 5 -8 10 -10 10 -5 0 6 -5 17 -10 25
-5 8 -10 11 -10 5z"/>
<path d="M2769 3663 c-13 -16 -12 -17 4 -4 16 13 21 21 13 21 -2 0 -10 -8 -17
-17z"/>
<path d="M3144 3652 c3 -6 -2 -13 -11 -15 -16 -4 -16 -5 -1 -6 21 -1 32 15 17
25 -7 4 -9 3 -5 -4z"/>
<path d="M2955 3590 c-3 -5 -1 -10 4 -10 6 0 11 5 11 10 0 6 -2 10 -4 10 -3 0
-8 -4 -11 -10z"/>
<path d="M2655 3541 c-3 -5 -2 -12 3 -15 5 -3 9 1 9 9 0 17 -3 19 -12 6z"/>
<path d="M3310 3546 c0 -2 8 -10 18 -17 15 -13 16 -12 3 4 -13 16 -21 21 -21
13z"/>
<path d="M3871 3497 c-8 -12 -21 -32 -29 -44 -8 -13 -12 -23 -9 -23 7 0 59 81
55 85 -2 2 -10 -6 -17 -18z"/>
<path d="M3696 3203 c-6 -14 -5 -15 5 -6 7 7 10 15 7 18 -3 3 -9 -2 -12 -12z"/>
<path d="M3660 3179 c0 -5 5 -7 10 -4 6 3 10 8 10 11 0 2 -4 4 -10 4 -5 0 -10
-5 -10 -11z"/>
<path d="M3630 3159 c0 -5 5 -7 10 -4 6 3 10 8 10 11 0 2 -4 4 -10 4 -5 0 -10
-5 -10 -11z"/>
<path d="M3608 2833 c6 -2 18 -2 25 0 6 3 1 5 -13 5 -14 0 -19 -2 -12 -5z"/>
<path d="M3188 2823 c7 -3 16 -2 19 1 4 3 -2 6 -13 5 -11 0 -14 -3 -6 -6z"/>
<path d="M2166 2808 c3 -5 10 -6 15 -3 13 9 11 12 -6 12 -8 0 -12 -4 -9 -9z"/>
<path d="M2034 2789 c-3 -6 -2 -15 3 -20 5 -5 9 -1 9 11 0 23 -2 24 -12 9z"/>
<path d="M2397 2769 c7 -7 15 -10 18 -7 3 3 -2 9 -12 12 -14 6 -15 5 -6 -5z"/>
<path d="M4035 4901 c-3 -5 -2 -12 3 -15 5 -3 9 1 9 9 0 17 -3 19 -12 6z"/>
<path d="M1875 4850 c-3 -5 -1 -10 4 -10 6 0 11 5 11 10 0 6 -2 10 -4 10 -3 0
-8 -4 -11 -10z"/>
<path d="M1906 4846 c3 -9 2 -16 -3 -16 -5 0 -10 -7 -10 -16 0 -14 2 -14 14 2
16 21 16 31 3 39 -6 3 -7 -1 -4 -9z"/>
<path d="M2006 4792 c-4 -7 -2 -12 6 -12 9 0 9 -3 -2 -10 -8 -5 -10 -10 -4
-10 6 0 18 8 25 17 8 9 9 14 2 10 -6 -4 -13 -2 -15 5 -3 9 -6 9 -12 0z"/>
<path d="M1900 4470 c-13 -8 -12 -10 3 -10 9 0 17 5 17 10 0 12 -1 12 -20 0z"/>
<path d="M4112 3590 c0 -14 2 -19 5 -12 2 6 2 18 0 25 -3 6 -5 1 -5 -13z"/>
<path d="M3848 2813 c7 -3 16 -2 19 1 4 3 -2 6 -13 5 -11 0 -14 -3 -6 -6z"/>
<path d="M3711 2624 c0 -11 3 -14 6 -6 3 7 2 16 -1 19 -3 4 -6 -2 -5 -13z"/>
<path d="M2728 2603 c7 -3 16 -2 19 1 4 3 -2 6 -13 5 -11 0 -14 -3 -6 -6z"/>
<path d="M4100 2581 c0 -6 4 -12 8 -15 5 -3 9 1 9 9 0 8 -4 15 -9 15 -4 0 -8
-4 -8 -9z"/>
<path d="M4047 2549 c7 -7 15 -10 18 -7 3 3 -2 9 -12 12 -14 6 -15 5 -6 -5z"/>
<path d="M3208 2523 c7 -3 16 -2 19 1 4 3 -2 6 -13 5 -11 0 -14 -3 -6 -6z"/>
<path d="M3980 2470 c-9 -6 -10 -10 -3 -10 6 0 15 5 18 10 8 12 4 12 -15 0z"/>
<path d="M690 2101 c-123 -40 -188 -157 -160 -289 41 -187 241 -254 371 -123
65 65 87 162 58 264 -12 43 -68 111 -110 132 -34 18 -126 27 -159 16z m116
-36 c5 -13 9 -13 22 -3 13 11 15 10 9 -6 -6 -16 -5 -17 8 -6 12 10 15 10 15
-4 0 -9 0 -19 1 -23 0 -4 -5 -9 -12 -12 -7 -2 -9 1 -4 9 5 9 4 11 -3 6 -7 -4
-12 -3 -12 3 0 13 -73 33 -93 25 -8 -3 -18 -1 -22 5 -3 6 -12 11 -18 11 -8 0
-8 -3 2 -9 9 -6 10 -11 2 -15 -6 -4 -11 -1 -12 6 0 7 -4 4 -8 -7 -5 -11 -13
-21 -20 -21 -6 -1 -16 -2 -22 -3 -5 0 -7 -6 -3 -13 4 -7 3 -8 -4 -4 -7 4 -12
1 -12 -10 0 -14 -3 -14 -16 -3 -14 11 -14 13 1 21 8 5 13 13 11 17 -3 4 7 14
22 21 15 7 34 16 42 20 8 4 39 8 68 9 39 1 54 -2 58 -14z m79 -25 c3 -5 1 -10
-4 -10 -6 0 -11 5 -11 10 0 6 2 10 4 10 3 0 8 -4 11 -10z m-64 -33 c97 -64 90
-239 -11 -289 -101 -51 -200 21 -200 145 0 62 14 100 52 133 45 41 108 45 159
11z m89 -7 c6 -11 8 -26 4 -32 -4 -7 -3 -8 4 -4 7 4 13 4 13 -1 1 -4 4 -19 6
-33 10 -48 6 -132 -6 -139 -7 -5 -11 -12 -9 -17 1 -5 -3 -19 -10 -30 -6 -12
-8 -25 -4 -29 4 -5 2 -5 -5 -1 -7 4 -18 -2 -24 -13 -7 -11 -19 -17 -27 -13
-10 3 -13 1 -8 -6 4 -7 -8 -15 -31 -21 -52 -15 -69 -14 -101 5 -18 11 -22 12
-10 2 10 -8 15 -18 11 -22 -4 -3 -20 6 -36 21 -17 16 -27 22 -23 16 4 -7 2
-13 -4 -13 -6 0 -13 7 -16 15 -4 8 -11 12 -17 8 -6 -3 -7 -1 -3 5 4 7 0 12
-10 12 -10 0 -14 3 -11 7 4 3 -3 22 -16 42 -30 50 -36 214 -6 195 5 -3 6 1 3
9 -7 18 14 33 27 20 6 -6 4 -22 -4 -44 -19 -46 -28 -109 -16 -109 6 0 7 -5 3
-11 -3 -6 4 -25 16 -41 13 -17 17 -27 10 -23 -9 6 -9 3 -1 -14 7 -11 14 -21
17 -21 3 0 2 5 -2 12 -4 7 -3 8 5 4 6 -4 9 -11 6 -15 -4 -8 34 -30 65 -38 31
-8 108 -9 104 -1 -3 4 1 8 9 8 22 0 68 40 60 53 -4 7 0 8 11 4 10 -4 15 -3 11
3 -4 6 1 17 9 26 9 8 16 23 16 32 0 15 -2 15 -11 2 -9 -12 -10 -12 -5 3 3 10
6 23 6 28 0 6 5 7 11 3 7 -4 7 1 -1 16 -8 16 -9 30 -1 52 14 40 14 43 -4 28
-12 -10 -15 -10 -15 2 0 9 -9 27 -20 40 -10 14 -16 28 -13 32 12 12 32 6 43
-14z"/>
<path d="M2110 2078 c-43 -29 -60 -61 -60 -115 0 -60 44 -105 128 -128 104
-29 137 -70 92 -115 -28 -28 -100 -27 -152 2 -45 26 -73 17 -73 -23 0 -18 11
-29 45 -47 38 -20 57 -23 122 -20 69 3 80 6 107 32 17 16 35 44 41 62 15 44
-2 107 -36 133 -36 28 -175 74 -188 61 -7 -7 -3 -10 11 -10 12 0 28 -6 35 -13
16 -16 81 -40 73 -27 -3 6 1 7 9 4 9 -3 13 -10 10 -15 -3 -5 2 -6 10 -3 11 4
16 0 16 -12 0 -9 3 -14 7 -11 11 12 35 -33 37 -69 1 -19 -2 -34 -6 -34 -4 0
-4 -7 -1 -17 4 -10 2 -14 -4 -10 -5 3 -16 -5 -23 -18 -10 -19 -19 -24 -34 -19
-15 4 -17 3 -8 -4 11 -7 9 -10 -7 -15 -12 -3 -19 -1 -15 5 3 5 -2 4 -13 -2
-39 -25 -189 26 -170 57 8 13 22 11 59 -7 15 -7 25 -17 22 -21 -3 -5 0 -9 5
-9 6 0 11 4 11 8 0 5 20 6 45 2 24 -4 42 -3 39 2 -3 4 1 8 9 8 26 0 50 38 49
76 -1 33 0 35 16 23 15 -13 16 -12 4 3 -8 10 -20 14 -29 11 -12 -5 -15 -2 -10
10 4 12 2 14 -10 10 -12 -5 -14 -3 -8 7 5 8 4 11 -3 6 -6 -4 -19 -2 -29 3 -10
5 -31 12 -46 16 -15 3 -25 10 -22 15 3 6 -1 7 -10 4 -18 -7 -47 14 -38 29 3 6
1 7 -6 3 -21 -14 -41 15 -41 59 0 44 20 73 41 59 8 -5 9 -3 5 5 -5 7 -15 10
-23 7 -8 -3 -11 -1 -8 4 3 6 15 10 26 10 20 0 27 -34 9 -45 -15 -9 -8 -84 7
-78 7 3 9 17 6 36 -10 64 61 85 155 46 31 -13 35 -12 48 6 18 24 15 34 -20 59
-20 15 -46 22 -99 24 -63 3 -77 1 -107 -20z m164 -9 c-5 -8 -15 -10 -76 -11
-20 -1 -35 -5 -33 -9 3 -4 -3 -10 -12 -13 -10 -4 -14 -4 -10 0 4 5 -3 14 -15
22 -13 7 -15 11 -6 8 10 -3 20 -1 22 3 3 5 35 8 70 8 36 0 63 -4 60 -8z m20
-11 c-5 -8 -2 -9 9 -5 20 8 29 -4 17 -23 -7 -12 -12 -12 -22 -2 -6 6 -25 12
-41 12 -16 0 -26 4 -22 10 4 6 11 8 16 5 5 -4 17 -1 26 4 23 13 26 13 17 -1z"/>
<path d="M2646 2084 c-19 -18 -20 -28 -6 -55 20 -37 80 -18 80 26 0 42 -44 59
-74 29z m37 -30 c-17 -13 -17 -14 1 -7 13 4 17 3 12 -5 -9 -14 -16 -15 -35 -3
-12 8 -12 11 0 24 8 8 20 12 27 10 9 -4 8 -9 -5 -19z"/>
<path d="M3082 2088 c-13 -13 -18 -411 -6 -442 8 -21 60 -21 68 0 3 9 6 35 6
59 0 26 6 47 15 55 9 7 17 11 18 9 33 -48 60 -78 68 -74 5 3 6 0 4 -7 -8 -21
39 -60 66 -56 32 4 36 35 8 64 -20 22 -25 23 -34 10 -10 -13 -15 -12 -44 5
-18 11 -31 23 -27 26 3 3 0 13 -7 22 -11 14 -10 15 8 1 17 -12 18 -12 7 0 -7
8 -16 15 -20 16 -4 0 -15 4 -25 9 -13 5 -22 2 -33 -14 -9 -12 -19 -19 -23 -17
-4 3 -6 -18 -5 -45 1 -27 -3 -52 -7 -55 -5 -3 -9 3 -9 13 0 11 -3 14 -8 6 -5
-9 -7 155 -2 375 0 12 4 22 10 22 5 0 7 -14 4 -32 -4 -25 -3 -30 5 -18 8 11
10 -12 9 -87 -2 -67 1 -106 9 -114 8 -8 11 22 12 124 2 126 0 137 -18 146 -25
14 -34 14 -49 -1z m244 -435 c2 -9 -3 -10 -16 -3 -16 8 -17 17 -10 50 1 7 24
-33 26 -47z m-41 27 c3 -5 1 -10 -4 -10 -6 0 -11 5 -11 10 0 6 2 10 4 10 3 0
8 -4 11 -10z"/>
<path d="M3717 2087 c-16 -11 -17 -34 -15 -232 l3 -220 26 -3 c46 -5 51 14 47
167 -1 76 0 137 5 134 4 -2 7 -8 7 -13 0 -5 24 -52 52 -105 70 -126 78 -126
145 -1 28 51 54 104 57 117 7 23 6 23 -14 -4 -12 -15 -26 -24 -32 -21 -5 3 -8
0 -7 -7 4 -20 -11 -59 -23 -59 -5 0 -8 -6 -5 -12 2 -7 -5 -29 -15 -49 -14 -28
-24 -36 -38 -32 -11 3 -20 10 -20 15 0 5 5 6 12 2 7 -4 8 -3 4 5 -4 6 -12 8
-18 5 -7 -5 -9 -1 -5 9 3 10 2 17 -3 17 -6 0 -10 7 -10 16 0 8 -5 12 -10 9 -6
-4 -9 -3 -8 2 3 10 -29 70 -54 102 -12 16 -15 27 -8 31 7 5 6 11 -5 20 -13 11
-15 10 -10 -2 4 -9 -1 -22 -9 -31 -12 -12 -15 -41 -15 -144 1 -159 2 -154 -16
-147 -11 5 -13 10 -5 19 5 6 7 15 3 19 -11 11 -10 367 1 373 5 3 14 -1 21 -10
7 -9 15 -14 18 -10 4 3 8 -1 8 -10 3 -31 4 -35 13 -44 5 -5 6 -2 1 6 -6 10 -4
12 4 7 7 -5 10 -11 7 -14 -4 -3 1 -16 9 -29 9 -13 13 -28 10 -34 -4 -5 -1 -8
6 -7 7 2 14 -1 15 -7 6 -33 18 -54 28 -48 7 4 7 1 -1 -7 -9 -10 -7 -17 12 -31
13 -11 26 -19 30 -19 9 0 -122 250 -142 273 -19 20 -33 21 -56 4z"/>
<path d="M4064 2092 c-20 -13 -146 -261 -138 -273 3 -6 1 -15 -6 -19 -7 -4 -8
-10 -4 -12 5 -3 18 4 29 15 11 11 14 17 8 13 -20 -11 -15 8 7 34 22 25 26 35
10 25 -20 -13 -9 9 30 55 41 49 57 81 19 39 l-21 -24 21 32 c12 17 21 38 21
47 0 19 45 50 60 41 7 -4 10 -75 9 -210 -1 -182 -3 -203 -18 -202 -14 1 -16
18 -15 139 1 134 -7 181 -20 117 -3 -18 -6 -82 -6 -144 0 -121 7 -140 52 -133
l23 3 3 220 c2 198 1 221 -15 232 -19 15 -33 16 -49 5z"/>
<path d="M2437 2053 c-4 -3 -7 -28 -7 -54 0 -46 -1 -48 -27 -46 -25 2 -28 -1
-28 -28 0 -25 4 -30 28 -33 l27 -3 0 -105 c0 -98 2 -107 25 -129 19 -20 34
-25 73 -25 55 0 78 17 67 49 -4 15 -16 21 -48 23 l-42 3 -3 93 -3 92 46 0 c46
0 46 0 43 33 -3 30 -6 32 -45 35 l-43 3 0 44 c0 30 -5 45 -16 49 -20 8 -39 8
-47 -1z m43 -43 c-11 -7 -11 -10 -2 -10 7 0 12 -6 11 -12 -5 -43 2 -60 21 -55
11 3 20 0 20 -6 0 -9 2 -9 8 -1 4 6 16 8 26 4 16 -5 17 -8 5 -15 -8 -5 -26 -8
-41 -6 -36 3 -60 -19 -46 -44 8 -13 7 -16 -1 -11 -6 4 -11 2 -11 -4 0 -6 -5
-8 -12 -4 -7 4 -8 3 -4 -4 4 -6 12 -9 19 -6 9 3 11 -14 10 -65 -2 -76 7 -92
52 -95 13 0 27 -6 29 -12 8 -20 -85 -10 -100 11 -13 17 -21 122 -16 198 2 19
-3 27 -15 29 -10 0 -22 2 -28 3 -5 2 -14 3 -19 4 -15 2 16 31 34 31 10 0 20 8
24 18 3 9 9 23 12 31 4 9 2 11 -5 7 -6 -4 -11 -3 -11 2 0 14 12 22 34 22 17 0
18 -2 6 -10z"/>
<path d="M4056 2025 c4 -8 8 -15 10 -15 2 0 4 7 4 15 0 8 -4 15 -10 15 -5 0
-7 -7 -4 -15z"/>
<path d="M3022 1981 c-11 -7 -11 -9 0 -14 9 -3 15 1 15 9 0 8 -1 14 -1 14 -1
0 -7 -4 -14 -9z"/>
<path d="M1382 1965 c15 -16 20 -17 30 -6 11 11 10 13 0 7 -7 -4 -21 -2 -30 5
-15 12 -15 11 0 -6z"/>
<path d="M1666 1968 c3 -5 10 -6 15 -3 13 9 11 12 -6 12 -8 0 -12 -4 -9 -9z"/>
<path d="M1022 1948 c-9 -9 -12 -67 -12 -219 0 -222 3 -234 52 -227 22 3 23 8
26 86 l3 82 28 -21 c37 -27 114 -28 150 -2 36 27 71 99 71 148 0 47 -28 112
-59 139 -15 13 -41 21 -81 24 -53 4 -61 2 -85 -22 -27 -27 -28 -47 -2 -30 7 5
4 1 -8 -10 -11 -10 -21 -22 -21 -27 -1 -5 -2 -13 -3 -19 0 -5 -6 -10 -12 -10
-5 0 -7 5 -3 12 4 7 3 8 -5 4 -9 -6 -9 -11 -1 -21 6 -7 8 -25 4 -39 -8 -33 19
-92 46 -101 11 -4 20 -11 20 -16 0 -5 8 -9 18 -10 11 0 12 -2 4 -6 -7 -3 -22
3 -33 13 -20 18 -21 18 -35 -1 -8 -10 -14 -22 -14 -25 0 -4 -7 -7 -15 -7 -20
0 -19 7 3 23 14 12 14 13 1 8 -15 -5 -17 7 -17 106 0 102 1 110 16 98 16 -12
16 -11 1 7 -26 32 -29 42 -14 42 8 0 15 -4 15 -9 0 -4 7 -8 16 -8 10 0 14 7
12 23 -3 25 -45 36 -66 15z m174 -6 c-2 -4 7 -12 20 -19 18 -8 24 -8 24 0 0 9
2 9 8 1 4 -6 13 -13 20 -15 18 -6 52 -109 42 -129 -4 -8 -6 -23 -5 -33 2 -9
-1 -15 -6 -11 -5 3 -9 -3 -9 -13 -1 -41 -72 -89 -84 -57 -3 9 -1 12 4 9 6 -3
10 -1 10 6 0 8 5 7 17 -2 10 -8 14 -9 10 -2 -4 6 -3 14 3 18 6 4 7 12 3 18 -4
7 1 6 10 -2 15 -12 17 -12 11 3 -3 9 -1 22 5 30 6 7 8 16 4 19 -3 4 -1 7 5 7
12 0 -3 68 -19 84 -5 6 -4 15 3 23 8 10 8 12 -4 8 -8 -3 -23 3 -33 15 -10 11
-29 20 -42 20 -24 0 -31 15 -10 23 18 8 19 8 13 -1z m42 -78 c31 -35 31 -103
-2 -140 -18 -21 -32 -28 -61 -28 -51 0 -85 39 -85 97 0 95 88 137 148 71z
m-41 -210 c-3 -3 -12 -4 -19 -1 -8 3 -5 6 6 6 11 1 17 -2 13 -5z m-131 -39 c1
-8 -3 -15 -9 -15 -8 0 -7 -3 1 -9 17 -10 12 -43 -6 -49 -10 -3 -13 7 -11 39 1
24 4 48 7 52 5 11 15 1 18 -18z"/>
<path d="M1442 1940 c-40 -24 -71 -89 -72 -145 0 -55 37 -125 80 -149 42 -25
122 -26 167 -3 37 20 46 39 28 63 -13 18 -15 18 -49 1 -65 -31 -114 -19 -141
33 l-16 30 110 0 c67 0 112 4 116 11 4 6 4 31 0 57 -5 35 -16 55 -45 84 -34
35 -43 38 -91 38 -36 0 -65 -7 -87 -20z m68 -10 c0 -5 -2 -10 -4 -10 -3 0 -8
5 -11 10 -3 6 -1 10 4 10 6 0 11 -4 11 -10z m58 -6 c12 -8 22 -12 22 -8 0 4 9
-1 20 -11 12 -10 19 -24 16 -31 -3 -7 0 -14 6 -16 7 -3 9 -12 5 -23 -9 -23
-19 -13 -23 22 -3 44 -4 44 -11 40 -5 -3 -24 6 -43 19 -19 13 -30 24 -24 24 5
0 20 -7 32 -16z m-88 -3 c0 -5 -11 -16 -24 -24 -13 -9 -26 -28 -29 -44 -5 -29
14 -68 28 -55 5 4 5 1 1 -6 -4 -7 -11 -10 -15 -8 -4 3 -13 -4 -20 -16 -7 -12
-8 -17 -1 -13 6 3 9 2 8 -4 -5 -16 35 -71 57 -78 11 -3 32 -6 47 -5 15 0 30
-3 33 -9 3 -5 -1 -6 -9 -3 -8 3 -24 0 -36 -6 -13 -7 -20 -8 -16 -2 3 5 -6 13
-21 17 -15 3 -39 17 -54 29 -22 18 -25 26 -16 36 9 10 9 11 0 6 -22 -12 -22
92 -1 106 9 5 9 8 1 8 -18 0 -3 39 18 45 11 4 17 10 14 15 -3 5 1 11 7 13 20
8 28 8 28 -2z m88 -37 c12 -8 22 -21 22 -29 0 -18 29 -47 40 -40 5 3 11 1 15
-5 3 -5 1 -11 -4 -11 -34 -4 -46 -2 -43 9 1 9 -21 12 -78 12 -71 0 -79 2 -73
18 20 56 76 78 121 46z m42 -209 c-7 -8 -17 -12 -23 -8 -6 4 -3 9 9 14 27 11
28 11 14 -6z"/>
<path d="M1715 1948 c-3 -8 -4 -81 -3 -163 l3 -150 30 0 30 0 5 112 c6 125 16
146 69 146 54 0 61 -14 61 -133 0 -116 7 -135 52 -128 22 3 23 7 26 108 4 131
-2 161 -35 194 -36 36 -113 37 -148 2 -24 -24 -24 -24 -27 -2 -4 25 -55 36
-63 14z m195 -19 c0 -5 -5 -7 -12 -3 -7 4 -8 3 -4 -5 6 -9 11 -9 21 -1 24 20
46 -30 47 -107 0 -110 -1 -133 -10 -133 -5 0 -7 30 -6 66 3 43 -2 78 -11 102
-9 20 -14 41 -11 48 3 7 -2 10 -14 7 -10 -3 -21 0 -24 6 -4 6 -16 11 -27 11
-11 0 -17 5 -14 10 8 13 65 13 65 -1z m-142 -8 c-1 -3 2 -14 7 -25 4 -10 4
-21 -1 -25 -14 -9 -16 -28 -16 -123 -1 -68 -4 -88 -15 -88 -11 0 -13 25 -9
133 2 72 5 132 5 133 4 4 30 -1 29 -5z"/>
<path d="M1930 1881 c0 -6 4 -13 10 -16 6 -3 7 1 4 9 -7 18 -14 21 -14 7z"/>
<path d="M2644 1947 c-2 -7 -3 -80 -2 -162 l3 -150 32 -3 c23 -2 33 2 37 15 9
30 3 287 -7 301 -12 16 -56 16 -63 -1z m52 -108 c1 -59 0 -74 -6 -49 l-7 35
-2 -37 c0 -21 4 -38 10 -38 6 0 9 -18 7 -47 -2 -34 -8 -48 -18 -48 -12 0 -15
24 -15 136 0 116 2 136 15 134 12 -1 15 -20 16 -86z"/>
<path d="M2833 1941 c-95 -60 -97 -226 -4 -288 45 -30 132 -32 179 -3 36 22
36 23 22 51 -13 23 -27 24 -69 3 -25 -13 -37 -13 -66 -4 -42 14 -58 41 -58 97
0 75 55 114 123 87 45 -18 70 -13 70 14 0 35 -37 56 -103 60 -49 2 -69 -1 -94
-17z m160 -24 c-3 -5 1 -13 8 -18 9 -6 10 -9 2 -9 -7 0 -17 8 -22 18 -6 9 -11
11 -11 5 0 -7 -5 -13 -11 -13 -5 0 -7 5 -3 11 4 7 0 9 -12 5 -11 -3 -35 -2
-54 4 -24 7 -31 7 -23 -1 7 -7 3 -18 -15 -36 -16 -16 -27 -21 -32 -13 -4 6 -5
-14 -2 -45 3 -33 1 -55 -6 -55 -5 0 -12 -10 -15 -22 -5 -21 -5 -21 7 -6 11 15
14 14 30 -13 31 -52 82 -68 140 -44 14 6 17 5 12 -3 -4 -7 -5 -12 -1 -12 3 0
10 10 15 23 l9 22 0 -22 c1 -26 -8 -33 -58 -44 -43 -10 -84 -2 -74 15 4 6 -2
4 -12 -4 -11 -9 -16 -10 -11 -2 4 6 4 12 -1 12 -4 0 -21 11 -38 24 -27 22 -29
29 -31 97 -2 72 -2 74 35 111 33 32 42 36 75 32 20 -2 44 0 53 5 19 10 55 -7
46 -22z"/>
<path d="M2790 1851 c0 -5 5 -13 10 -16 6 -3 10 -2 10 4 0 5 -4 13 -10 16 -5
3 -10 2 -10 -4z"/>
<path d="M3222 1897 c-34 -34 -62 -69 -62 -76 0 -8 13 1 29 19 16 19 33 30 40
26 17 -11 13 -29 -5 -22 -10 4 -13 2 -7 -6 4 -7 8 -21 8 -31 1 -10 8 -23 16
-28 12 -7 12 -12 1 -30 -8 -11 -9 -18 -4 -15 6 3 12 3 15 -1 2 -5 3 -3 1 3 -1
6 3 17 9 23 8 8 6 16 -6 29 -9 10 -17 23 -17 27 0 5 23 33 52 62 44 44 49 54
38 67 -22 27 -44 18 -108 -47z m92 34 c3 -5 0 -14 -7 -19 -10 -8 -13 -6 -14 9
-2 19 11 26 21 10z m-31 -30 c-3 -11 -12 -22 -20 -25 -8 -4 -11 -11 -7 -18 6
-9 3 -9 -9 1 -16 12 -15 15 4 42 22 31 40 31 32 0z"/>
<path d="M3364 1945 c-6 -14 57 -185 98 -268 17 -34 17 -40 3 -66 -12 -24 -23
-30 -52 -33 -31 -2 -39 -7 -41 -25 -7 -46 94 -57 132 -14 23 25 158 376 154
399 -2 10 -14 18 -30 20 -24 3 -28 -3 -56 -75 -17 -43 -36 -98 -43 -122 l-13
-43 -33 88 c-53 143 -59 154 -88 154 -14 0 -28 -7 -31 -15z m49 -23 c-2 -7 1
-12 6 -12 10 0 26 -66 23 -95 -2 -15 0 -16 7 -6 11 17 18 4 16 -30 0 -17 4
-25 11 -22 6 2 14 -3 18 -12 3 -9 2 -13 -4 -10 -6 3 -7 -1 -4 -9 3 -9 10 -13
15 -10 5 3 9 0 9 -7 0 -7 6 -4 14 6 13 18 14 18 20 -2 6 -20 -17 -107 -35
-129 -5 -6 -7 -13 -4 -16 3 -3 -5 -13 -17 -24 -12 -10 -18 -14 -15 -8 4 7 0
15 -9 18 -8 3 -13 2 -10 -2 2 -4 1 -14 -3 -21 -6 -10 -12 -9 -25 4 -9 9 -16
11 -16 5 0 -6 -4 -8 -10 -5 -17 10 -11 25 10 25 11 0 20 -4 20 -10 0 -5 5 -10
11 -10 5 0 7 5 4 10 -3 6 1 13 9 16 8 3 21 21 28 39 6 19 16 31 22 28 6 -4 2
3 -8 15 -11 12 -20 32 -22 45 -1 12 -3 26 -3 30 -1 5 -6 5 -13 1 -7 -4 -8 -3
-4 5 4 6 -2 28 -14 48 -12 20 -19 45 -16 56 2 10 2 16 -1 13 -10 -9 -35 47
-30 66 3 10 1 16 -4 12 -5 -3 -9 0 -9 6 0 6 8 10 18 8 9 -2 16 -10 15 -16z
m223 6 c5 -7 3 -8 -7 -3 -12 7 -12 6 -1 -7 11 -14 11 -22 -3 -48 -10 -19 -20
-28 -28 -24 -7 4 -9 4 -5 0 3 -4 1 -27 -7 -51 -7 -24 -10 -47 -6 -51 3 -4 0
-4 -8 1 -10 6 -12 2 -6 -14 3 -11 2 -21 -3 -21 -15 0 -24 31 -12 45 5 6 7 15
3 19 -4 4 -1 11 6 16 8 4 15 16 16 27 2 28 38 123 46 123 4 0 11 -5 15 -12z"/>
<path d="M3510 1661 c0 -5 5 -13 10 -16 6 -3 10 -2 10 4 0 5 -4 13 -10 16 -5
3 -10 2 -10 -4z"/>
<path d="M3490 1595 c-11 -13 -10 -14 4 -9 9 3 16 10 16 15 0 13 -6 11 -20 -6z"/>
<path d="M4240 1935 c-44 -33 -60 -64 -67 -128 -6 -64 26 -132 74 -160 61 -35
189 -18 206 27 3 8 0 22 -8 32 -13 18 -15 18 -49 1 -52 -24 -92 -22 -121 8
-48 47 -36 55 79 55 95 0 105 2 111 20 10 32 -15 102 -50 137 -29 29 -39 33
-87 33 -42 0 -62 -6 -88 -25z m112 1 c3 2 18 0 33 -6 15 -6 25 -13 22 -17 -4
-3 0 -11 9 -17 8 -6 16 -21 17 -34 0 -12 6 -22 12 -22 5 0 3 -5 -5 -10 -12 -8
-12 -10 -1 -10 8 0 12 -2 9 -5 -3 -3 -13 -2 -22 1 -10 4 -14 10 -9 13 5 3 6
17 2 31 -4 14 -8 18 -9 10 -1 -8 -5 -4 -9 10 -5 17 -13 24 -26 22 -13 -3 -16
1 -11 13 4 13 2 15 -13 10 -11 -3 -23 -1 -26 6 -6 8 -10 7 -16 -2 -4 -8 -12
-14 -16 -14 -30 -1 -83 -78 -63 -90 6 -4 8 -10 5 -15 -3 -5 0 -12 6 -16 8 -4
9 -3 5 4 -8 13 6 17 17 5 4 -3 -5 -14 -19 -24 -16 -10 -22 -19 -15 -24 6 -3 9
-11 6 -16 -6 -9 45 -79 58 -79 5 0 5 5 2 10 -8 13 -2 13 28 -1 19 -8 30 -8 48
2 23 13 59 21 59 13 0 -2 -15 -10 -34 -18 -67 -28 -157 -10 -171 34 -4 11 -10
18 -15 15 -4 -3 -6 4 -3 15 3 11 1 20 -3 20 -8 0 -10 26 -6 87 4 50 96 121
133 102 9 -5 19 -6 21 -3z m15 -49 c6 -4 16 -20 21 -37 l11 -30 -75 0 c-82 0
-90 8 -54 52 10 14 17 28 14 30 -7 7 70 -7 83 -15z m8 -87 c3 -5 -1 -10 -10
-10 -9 0 -13 5 -10 10 3 6 8 10 10 10 2 0 7 -4 10 -10z m55 0 c0 -13 -11 -13
-30 0 -12 8 -11 10 8 10 12 0 22 -4 22 -10z"/>
<path d="M4216 1863 c-6 -14 -5 -15 5 -6 7 7 10 15 7 18 -3 3 -9 -2 -12 -12z"/>
<path d="M4504 1947 c-2 -7 -3 -80 -2 -162 3 -148 3 -150 26 -153 44 -6 52 12
52 122 0 55 4 106 8 113 4 6 19 16 34 22 21 8 31 7 47 -7 18 -15 21 -30 23
-132 3 -112 4 -115 26 -118 44 -6 52 12 52 120 0 117 8 138 53 138 52 0 57
-12 57 -137 0 -112 0 -113 25 -119 28 -7 53 9 54 34 0 9 -2 66 -5 126 -6 103
-8 111 -34 138 -23 22 -37 28 -73 28 -48 0 -96 -28 -83 -49 4 -6 12 -9 17 -5
6 3 5 -4 -3 -15 -13 -21 -13 -21 -16 -2 -6 37 -51 71 -94 71 -41 0 -78 -14
-78 -30 0 -11 31 -6 59 10 16 8 27 8 43 -1 21 -11 21 -12 3 -25 -10 -7 -23
-10 -29 -6 -21 13 -48 13 -40 0 6 -10 4 -10 -8 0 -14 11 -17 10 -21 -5 -4 -17
-5 -17 -6 0 0 9 -5 17 -10 17 -5 0 -11 9 -14 20 -6 23 -54 28 -63 7z m38 -16
c-10 -6 -7 -10 13 -15 23 -6 25 -9 13 -23 -11 -14 -11 -16 2 -8 12 7 12 4 -2
-17 -13 -20 -17 -45 -15 -107 1 -45 -1 -81 -6 -81 -4 0 -5 -4 -2 -10 3 -5 0
-10 -7 -10 -10 0 -13 29 -11 133 2 160 0 147 16 147 9 0 9 -3 -1 -9z m369 -8
c5 -5 12 -23 14 -39 2 -16 4 -29 5 -29 0 0 2 -44 3 -97 2 -76 0 -99 -11 -103
-10 -3 -12 0 -8 10 3 8 0 15 -6 15 -7 0 -9 31 -6 101 3 55 1 94 -3 87 -7 -10
-9 -9 -9 5 0 9 -6 17 -12 18 -9 0 -9 2 1 6 11 4 11 7 0 14 -7 4 -22 3 -32 -3
-15 -8 -18 -7 -12 3 6 9 3 11 -9 6 -22 -9 -43 2 -26 13 17 10 98 6 111 -7z
m-158 -43 c3 -12 -1 -24 -11 -30 -10 -5 -12 -10 -6 -10 13 0 17 -160 4 -160
-5 0 -7 -8 -4 -17 5 -16 4 -16 -10 0 -21 27 -19 184 3 198 13 9 13 10 -3 5
-14 -5 -17 -2 -12 10 4 11 2 15 -8 11 -24 -10 -28 6 -4 19 26 14 43 5 51 -26z"/>
<path d="M5068 1945 c-91 -50 -100 -234 -13 -291 129 -85 280 27 246 181 -12
54 -47 100 -88 116 -36 13 -114 10 -145 -6z m142 -8 c0 3 6 0 14 -7 18 -14 10
-40 -13 -40 -14 1 -14 2 2 14 10 8 14 17 9 20 -6 3 -13 -1 -16 -10 -6 -15 -8
-15 -24 -1 -12 11 -22 13 -35 6 -9 -6 -22 -7 -29 -3 -7 5 -8 3 -3 -6 5 -8 4
-11 -3 -6 -13 8 -63 -44 -55 -57 3 -6 1 -7 -5 -3 -7 4 -10 -10 -9 -44 1 -27 6
-50 10 -50 4 0 7 -8 5 -17 -3 -18 58 -66 73 -57 5 3 9 0 9 -5 0 -6 7 -11 16
-11 8 0 12 5 8 11 -4 7 2 9 17 7 15 -2 23 2 22 9 -2 6 6 14 16 18 11 3 21 19
25 36 3 17 10 28 16 24 6 -4 5 4 -2 20 -9 19 -9 28 0 37 7 7 12 17 12 23 0 5
-4 4 -9 -4 -5 -8 -11 -9 -15 -3 -3 5 1 12 9 16 20 7 25 -5 26 -62 2 -81 -53
-137 -141 -143 -42 -2 -52 0 -44 13 5 7 3 8 -5 3 -16 -9 -61 32 -61 56 0 10
-4 20 -8 23 -5 3 -7 28 -6 56 2 39 7 55 26 70 21 18 21 19 3 15 -12 -3 -9 0 6
7 14 7 24 19 22 26 -3 6 0 12 7 12 6 0 8 -6 5 -12 -4 -7 0 -6 7 3 8 10 25 15
41 13 15 -1 25 1 22 6 -3 5 8 5 25 0 16 -5 30 -6 30 -3z m-2 -73 c34 -38 31
-107 -7 -145 -37 -37 -65 -37 -102 0 -23 24 -29 38 -29 73 0 95 79 136 138 72z
m51 2 c-12 -13 -34 8 -25 23 5 8 11 7 21 -2 8 -7 10 -16 4 -21z"/>
<path d="M5257 1743 c-4 -3 -7 -11 -7 -17 0 -6 5 -5 12 2 6 6 9 14 7 17 -3 3
-9 2 -12 -2z"/>
<path d="M5040 1706 c0 -2 8 -10 18 -17 15 -13 16 -12 3 4 -13 16 -21 21 -21
13z"/>
<path d="M5378 1945 c-36 -20 -54 -76 -37 -117 12 -30 73 -67 110 -68 9 0 24
-9 34 -20 39 -44 -30 -66 -101 -33 -35 17 -36 17 -50 -2 -8 -10 -13 -24 -11
-30 7 -21 69 -47 115 -48 96 -1 150 61 118 136 -12 30 -24 39 -75 57 -71 26
-89 43 -71 65 15 18 45 19 90 3 28 -9 35 -9 46 6 7 10 10 24 8 31 -13 33 -127
46 -176 20z m145 -24 c8 -8 6 -11 -5 -11 -9 0 -19 4 -23 9 -8 14 -47 7 -74
-11 -26 -19 -53 -14 -44 8 5 14 16 18 40 15 6 -1 14 3 17 8 7 11 74 -3 89 -18z
m-139 -70 c-1 -17 2 -31 8 -31 5 0 6 5 3 10 -3 6 -1 10 4 10 11 0 15 -15 11
-35 -1 -5 4 -4 11 3 7 6 18 12 24 12 5 0 3 -5 -5 -11 -12 -8 -12 -10 5 -8 11
1 29 1 40 0 17 -1 18 -3 5 -11 -12 -8 -9 -10 11 -10 39 0 52 -22 44 -70 -6
-36 -9 -39 -19 -24 -10 13 -15 14 -21 4 -5 -9 -4 -11 3 -6 7 4 12 2 12 -3 0
-6 -7 -11 -16 -11 -8 0 -13 -4 -10 -9 3 -5 -1 -11 -9 -15 -8 -3 -15 -1 -15 5
0 6 -6 9 -13 6 -8 -3 -20 -1 -28 4 -10 6 -5 9 17 9 36 0 74 36 70 65 -3 20
-50 49 -96 59 -14 3 -36 15 -48 26 -18 17 -21 25 -11 36 8 10 8 14 0 14 -6 0
-11 4 -11 9 0 5 8 8 18 6 12 -2 17 -11 16 -34z m22 -182 c3 -5 -6 -9 -19 -9
-13 0 -24 6 -24 14 0 14 33 10 43 -5z"/>
<path d="M5526 1757 c3 -10 9 -15 12 -12 3 3 0 11 -7 18 -10 9 -11 8 -5 -6z"/>
<path d="M4665 1930 c3 -5 8 -10 11 -10 2 0 4 5 4 10 0 6 -5 10 -11 10 -5 0
-7 -4 -4 -10z"/>
<path d="M2140 1890 c-9 -6 -10 -10 -3 -10 6 0 15 5 18 10 8 12 4 12 -15 0z"/>
<path d="M3111 1814 c0 -11 3 -14 6 -6 3 7 2 16 -1 19 -3 4 -6 -2 -5 -13z"/>
<path d="M3267 1754 c-3 -4 -2 -16 4 -26 8 -15 14 -17 22 -9 8 8 7 15 -4 26
-8 9 -18 13 -22 9z"/>
<path d="M1055 1731 c-3 -5 -2 -12 3 -15 5 -3 9 1 9 9 0 17 -3 19 -12 6z"/>
<path d="M3853 1695 c0 -8 4 -12 9 -9 5 3 6 10 3 15 -9 13 -12 11 -12 -6z"/>
<path d="M4769 1623 c-13 -16 -12 -17 4 -4 16 13 21 21 13 21 -2 0 -10 -8 -17
-17z"/>
<path d="M4160 1606 c7 -7 13 -7 20 0 6 6 3 10 -10 10 -13 0 -16 -4 -10 -10z"/>
<path d="M4456 1612 c-3 -5 1 -9 9 -9 8 0 12 4 9 9 -3 4 -7 8 -9 8 -2 0 -6 -4
-9 -8z"/>
</g>
</svg>
